<svg width="204" height="282" viewBox="0 0 204 282" fill="none" xmlns="http://www.w3.org/2000/svg">
<path d="M20.3604 254.28C31.3976 254.28 40.3451 251.787 40.3451 248.712C40.3451 245.637 31.3976 243.145 20.3604 243.145C9.32322 243.145 0.375793 245.637 0.375793 248.712C0.375793 251.787 9.32322 254.28 20.3604 254.28Z" fill="#016099"/>
<path d="M40.3484 248.639C40.3484 248.639 44.1788 281.35 20.3638 281.39C-4.45045 281.436 0.379165 248.636 0.379165 248.636L40.3484 248.639Z" fill="#016099"/>
<path d="M20.4437 253.135C30.6991 253.135 39.0128 251.122 39.0128 248.639C39.0128 246.156 30.6991 244.144 20.4437 244.144C10.1883 244.144 1.87469 246.156 1.87469 248.639C1.87469 251.122 10.1883 253.135 20.4437 253.135Z" fill="#012869"/>
<path d="M115.352 186.538C105.61 190.256 98.0623 199.152 98.0623 199.152C98.0623 199.152 109.692 203.857 119.046 203.324C128.742 202.773 133.418 196.215 132.396 191.58C131.373 186.944 124.424 183.075 115.352 186.538Z" fill="#016099"/>
<path d="M126.385 192.552V192.53C126.383 192.501 126.375 192.472 126.362 192.445C126.349 192.419 126.33 192.395 126.308 192.376C126.286 192.356 126.26 192.342 126.231 192.333C126.203 192.323 126.174 192.32 126.144 192.322C126.051 192.322 116.77 193.066 108.446 195.908C108.389 195.928 108.343 195.969 108.317 196.023C108.29 196.076 108.287 196.138 108.306 196.195C108.326 196.251 108.367 196.298 108.42 196.324C108.474 196.35 108.536 196.354 108.593 196.335C116.863 193.504 126.079 192.778 126.177 192.771C126.233 192.767 126.285 192.743 126.324 192.702C126.362 192.661 126.384 192.608 126.385 192.552Z" fill="#A9D3E1"/>
<path d="M50.4373 219.866C40.1119 218.397 29.1987 222.53 29.1987 222.53C29.1987 222.53 37.0909 232.28 45.5394 236.349C54.2877 240.565 61.5554 237.094 62.9094 232.545C64.2633 227.996 60.0516 221.235 50.4373 219.866Z" fill="#016099"/>
<path d="M57.1688 230.474L57.1788 230.454C57.2037 230.4 57.2061 230.338 57.1855 230.282C57.1649 230.226 57.1229 230.181 57.0688 230.156C56.9839 230.117 48.5088 226.265 39.8504 224.716C39.7935 224.71 39.7364 224.726 39.6907 224.76C39.6449 224.795 39.6139 224.845 39.6037 224.901C39.5936 224.958 39.6052 225.016 39.6361 225.064C39.667 225.112 39.7151 225.146 39.7705 225.161C48.3739 226.697 56.7957 230.527 56.8807 230.565C56.9315 230.588 56.9891 230.592 57.0424 230.575C57.0957 230.558 57.1407 230.522 57.1688 230.474Z" fill="#A9D3E1"/>
<path d="M17.4061 248.844C19.0221 249.207 20.7019 249.174 22.3023 248.747C21.8227 218.263 50.7171 212.783 77.8379 210.047C90.6447 208.755 99.0383 203.887 103.496 195.162C107.327 187.681 107.65 178.702 107.966 170.021C108.218 163.123 108.456 156.609 110.493 151.851C112.633 146.856 116.506 144.418 123.051 143.952L122.742 139.6C114.581 140.181 109.267 143.626 106.481 150.132C104.123 155.639 103.871 162.547 103.605 169.861C103.305 178.069 102.997 186.556 99.6078 193.171C95.824 200.57 88.7661 204.551 77.3966 205.7C67.2594 206.724 51.9412 208.271 39.619 214.165C32.8725 217.393 27.6282 221.657 24.041 226.819C19.8642 232.843 17.2712 240.264 17.4061 248.844Z" fill="#016099"/>
<path d="M115.817 155.101C110.035 156.749 105.252 161.481 105.252 161.481C105.252 161.481 111.697 164.768 117.103 164.931C122.7 165.097 125.716 161.568 125.361 158.854C125.007 156.14 121.204 153.567 115.817 155.101Z" fill="#016099"/>
<path d="M96.2554 164.64C102.251 164.242 107.925 160.619 107.925 160.619C107.925 160.619 102.312 156.052 97.0614 154.758C91.6239 153.426 87.9351 156.24 87.7119 158.969C87.4888 161.698 90.6663 165.006 96.2554 164.64Z" fill="#016099"/>
<path d="M63.2225 189.833C59.4387 199.547 60.9659 211.113 60.9659 211.113C60.9659 211.113 72.2622 205.654 78.1526 198.359C84.2529 190.805 82.5309 182.938 78.4075 180.584C74.284 178.23 66.7464 180.785 63.2225 189.833Z" fill="#016099"/>
<path d="M67.0462 200.803C67.0545 200.79 67.0612 200.776 67.0662 200.762C70.3353 191.116 75.6362 184.708 75.6895 184.644C75.7089 184.622 75.7235 184.596 75.7326 184.567C75.7417 184.539 75.745 184.509 75.7423 184.479C75.7397 184.45 75.7312 184.421 75.7172 184.395C75.7033 184.368 75.6843 184.345 75.6612 184.326C75.6153 184.289 75.5564 184.271 75.4972 184.276C75.438 184.281 75.3833 184.309 75.3448 184.355C75.2915 184.42 69.9356 190.893 66.6398 200.617C66.6221 200.669 66.6246 200.727 66.6466 200.778C66.6686 200.829 66.7087 200.869 66.7591 200.893C66.8096 200.916 66.8668 200.919 66.9198 200.903C66.9728 200.886 67.0178 200.851 67.0462 200.803Z" fill="#A9D3E1"/>
<path d="M180.167 123.278C155.162 140.774 109.795 160.026 104.799 155.955C99.8026 151.884 123.421 115.737 140.879 91.6629C149.957 79.1438 157.243 76.5347 165.272 79.6532C170.935 81.8527 173.506 86.1601 179.709 87.532C187.971 89.3635 194.383 90.6006 197.324 93.0598C204.449 99.0139 202.239 107.833 180.167 123.278Z" fill="#016099"/>
<path d="M94.197 82.7185C88.991 105.394 103.108 153.518 108.852 154.781C114.596 156.045 140.423 115.174 147.463 92.9883C154.502 70.8021 153.678 63.1481 127.673 62.3789C115.975 62.0342 103.04 44.1971 94.197 82.7185Z" fill="#016099"/>
<path d="M59.019 97.2403C70.9781 117.199 101.575 155.918 106.591 152.851C111.607 149.784 109.089 92.5533 103.796 69.8877C100.154 54.285 84.168 46.8824 64.8812 64.3383C56.2095 72.1954 38.7047 63.3393 59.019 97.2403Z" fill="#016099"/>
<path d="M20.5769 116.236C40.1569 139.64 99.6244 158.321 105.012 154.796C110.399 151.271 78.6672 133.083 69.6592 104.745C60.6661 76.4613 55.7282 76.4812 46.6435 76.6061C37.3041 76.7377 32.4878 83.7756 28.5175 88.2212C23.6346 93.6924 15.1861 92.3604 11.6871 96.5462C7.31215 101.799 11.0043 104.796 20.5769 116.236Z" fill="#016099"/>
<path d="M76.2009 96.3898L74.8585 119.567L54.4176 121.863L63.1276 116.072C63.1276 116.072 63.7371 115.024 63.7937 114.705C64.698 110.209 63.7604 95.3242 63.7604 95.3242L76.2009 96.3898Z" fill="#FDB88E"/>
<path d="M75.2166 113.655C75.3915 113.421 80.9605 120.059 77.7979 122.979C75.5763 125.034 72.9683 124.418 68.5684 125.565C61.6387 127.373 54.804 129.561 51.0452 128.767C48.9901 128.331 48.1508 125.48 50.6555 123.439C52.3209 122.087 63.056 116.158 63.0859 116.085C64.9162 118.757 73.8976 116.721 75.2166 113.655Z" fill="#012869"/>
<path d="M63.4573 120.051C63.5012 120.048 63.5439 120.035 63.5814 120.012C63.6189 119.989 63.6501 119.957 63.6722 119.919C63.7074 119.858 63.7169 119.785 63.6989 119.717C63.6808 119.649 63.6365 119.59 63.5756 119.555L60.7294 117.898C60.6992 117.878 60.6652 117.864 60.6295 117.858C60.5939 117.852 60.5573 117.853 60.522 117.861C60.4868 117.869 60.4536 117.885 60.4245 117.906C60.3953 117.928 60.3709 117.955 60.3527 117.986C60.3344 118.017 60.3227 118.052 60.3183 118.088C60.3139 118.124 60.3169 118.16 60.3271 118.195C60.3372 118.23 60.3544 118.262 60.3775 118.29C60.4005 118.318 60.429 118.341 60.4613 118.357L63.3074 120.022C63.3536 120.046 63.4057 120.056 63.4573 120.051Z" fill="#E8E2E4"/>
<path d="M60.7877 121.32C60.8264 121.317 60.8642 121.306 60.8984 121.288C60.9326 121.27 60.9625 121.244 60.9859 121.213C61.0277 121.157 61.0456 121.086 61.0357 121.017C61.0257 120.947 60.9886 120.884 60.9326 120.842L58.4695 118.994C58.4415 118.973 58.4096 118.957 58.3757 118.949C58.3418 118.94 58.3066 118.938 58.2719 118.943C58.2373 118.948 58.2039 118.96 58.1738 118.978C58.1437 118.995 58.1174 119.019 58.0964 119.047C58.0549 119.104 58.0372 119.175 58.0471 119.244C58.0571 119.314 58.0939 119.377 58.1497 119.42L60.6128 121.266C60.6628 121.305 60.7249 121.324 60.7877 121.32Z" fill="#E8E2E4"/>
<path d="M107.697 85.061C105.865 81.9258 94.8181 44.8879 76.9802 45.3008C52.9986 45.8552 58.0281 76.5345 61.0041 111.651C61.2206 114.205 77.578 112.75 77.9677 110.486C79.7197 100.309 86.9342 47.5752 74.652 75.0044C78.4357 92.2887 86.3296 111.338 94.7615 114.75C106.542 119.515 114.213 114.929 118.102 112.793C119.198 112.652 109.477 88.1013 107.697 85.061Z" fill="#016099"/>
<path d="M80.7357 91.9126C80.7971 91.9138 80.8569 91.8927 80.9041 91.8532C80.9512 91.8137 80.9825 91.7585 80.9921 91.6978C83.0122 78.7741 81.9197 64.5467 81.9081 64.4035C81.9103 64.3673 81.9047 64.331 81.8917 64.2972C81.8788 64.2633 81.8586 64.2327 81.8328 64.2073C81.8069 64.1819 81.7759 64.1623 81.7418 64.15C81.7077 64.1376 81.6714 64.1327 81.6352 64.1356C81.5991 64.1385 81.564 64.1491 81.5323 64.1667C81.5006 64.1844 81.4731 64.2086 81.4516 64.2378C81.4301 64.267 81.4151 64.3004 81.4077 64.3359C81.4002 64.3714 81.4005 64.4081 81.4085 64.4434C81.4201 64.585 82.5092 78.7624 80.4975 91.6196C80.4923 91.6525 80.4936 91.6861 80.5014 91.7185C80.5093 91.7509 80.5234 91.7814 80.5431 91.8084C80.5627 91.8353 80.5875 91.858 80.616 91.8754C80.6444 91.8927 80.6761 91.9042 80.709 91.9093L80.7357 91.9126Z" fill="#002869"/>
<path d="M148.15 86.9607C139.064 96.9407 117.287 90.8135 108.707 84.7746C102.073 75.9734 98.5486 111.866 117.046 114.901C126.274 116.416 175.501 129.054 180.311 106.518C184.737 85.7519 153.095 88.038 148.15 86.9607Z" fill="#012869"/>
<path d="M104.611 126.17C100.78 126.688 80.3893 126.218 85.3121 122.743C86.8776 121.638 88.0417 120.745 92.5049 119.288C94.4301 118.661 106.431 115.317 107.037 115.883C107.202 116.037 107.397 116.153 107.611 116.224C107.824 116.294 108.051 116.318 108.274 116.293L114.541 115.302L116.54 124.603L104.611 126.17Z" fill="#FDB88E"/>
<path d="M83.6967 127.887C79.8363 127.72 79.0336 123.724 83.4569 120.641C86.8176 118.298 93.5175 117.434 95.4926 116.478C103.796 112.457 107.685 116.25 107.685 116.25C107.685 116.25 101.333 121.318 104.696 126.127C104.696 126.127 89.5205 128.138 83.6967 127.887Z" fill="#002869"/>
<path d="M100.55 126.333C100.575 126.334 100.6 126.332 100.624 126.325C100.658 126.316 100.689 126.301 100.717 126.28C100.745 126.259 100.769 126.233 100.787 126.203C100.804 126.173 100.816 126.14 100.821 126.105C100.826 126.071 100.824 126.036 100.815 126.002L99.8859 122.362C99.878 122.327 99.8632 122.295 99.8424 122.266C99.8217 122.237 99.7953 122.213 99.765 122.194C99.7347 122.176 99.701 122.164 99.6658 122.158C99.6307 122.153 99.5948 122.155 99.5604 122.164C99.526 122.172 99.4936 122.188 99.4653 122.209C99.437 122.231 99.4132 122.258 99.3955 122.288C99.3777 122.319 99.3663 122.353 99.3618 122.388C99.3574 122.424 99.3601 122.459 99.3697 122.494L100.299 126.133C100.313 126.19 100.345 126.24 100.391 126.276C100.436 126.312 100.492 126.332 100.55 126.333Z" fill="#E8E2E4"/>
<path d="M97.8225 126.403C97.8457 126.405 97.8692 126.405 97.8924 126.403C97.9611 126.386 98.0204 126.343 98.0572 126.283C98.0941 126.222 98.1055 126.15 98.0889 126.081L97.3046 122.853C97.297 122.818 97.2826 122.785 97.2622 122.756C97.2418 122.727 97.2158 122.703 97.1858 122.684C97.1557 122.665 97.1221 122.652 97.0871 122.647C97.052 122.641 97.0162 122.642 96.9817 122.65C96.9472 122.659 96.9147 122.674 96.8861 122.695C96.8575 122.716 96.8334 122.743 96.8152 122.773C96.7971 122.804 96.7852 122.837 96.7803 122.873C96.7754 122.908 96.7775 122.944 96.7866 122.978L97.5677 126.198C97.5816 126.255 97.6142 126.307 97.6603 126.344C97.7063 126.381 97.7634 126.401 97.8225 126.403Z" fill="#E8E2E4"/>
<path d="M110.233 111.093C110.233 111.093 128.249 102.069 145.97 99.13C165.187 95.9448 181.255 92.4283 179.728 106.98C177.713 126.17 120.567 127.45 112.365 126.406C110.488 126.045 108.503 111.393 110.233 111.093Z" fill="#012869"/>
<path d="M111.294 93.9785C111.327 93.9787 111.361 93.9731 111.392 93.9619C111.424 93.9498 111.452 93.9315 111.477 93.9081C111.501 93.8847 111.521 93.8567 111.534 93.8257C111.548 93.7947 111.555 93.7614 111.555 93.7276C111.556 93.6938 111.55 93.6602 111.537 93.6289L105.708 78.4657C105.696 78.4347 105.678 78.4063 105.655 78.3822C105.632 78.358 105.605 78.3386 105.575 78.3251C105.544 78.3116 105.512 78.3042 105.478 78.3033C105.445 78.3024 105.412 78.3081 105.381 78.32C105.35 78.332 105.321 78.3499 105.297 78.3728C105.273 78.3957 105.254 78.4231 105.24 78.4534C105.227 78.4838 105.219 78.5166 105.218 78.5498C105.218 78.5831 105.223 78.6162 105.235 78.6472L111.064 93.8104C111.081 93.8581 111.112 93.8996 111.153 93.9295C111.194 93.9595 111.243 93.9766 111.294 93.9785Z" fill="#002869"/>
<path d="M111.5 113.149C111.539 113.151 111.578 113.143 111.614 113.126L114.256 111.909C137.905 101.025 148.687 96.0566 167.469 97.8698C167.53 97.8676 167.589 97.8433 167.634 97.8012C167.678 97.7592 167.706 97.7023 167.712 97.6412C167.718 97.5801 167.701 97.5189 167.666 97.4691C167.63 97.4192 167.577 97.3841 167.517 97.3703C158.378 96.4878 150.88 97.1821 142.45 99.6896C134.376 102.092 125.848 106.017 114.045 111.453L111.4 112.67C111.349 112.694 111.307 112.735 111.282 112.787C111.256 112.838 111.249 112.896 111.26 112.951C111.272 113.007 111.302 113.057 111.345 113.094C111.389 113.131 111.443 113.152 111.5 113.154V113.149Z" fill="#016099"/>
<path d="M75.7961 60.246C75.08 69.3669 100.777 87.4655 106.209 87.6053C119.366 87.9383 144.513 95.8238 155.723 87.617C156.432 87.0992 162.186 72.6586 159.19 59.2171C155.718 43.626 140.157 32.0543 128.547 31.5381C122.095 31.2501 119.326 29.953 114.699 30.9337C76.8986 38.9374 75.7961 60.246 75.7961 60.246Z" fill="#016099"/>
<path d="M121.359 89.3982C134.721 91.8191 149.439 95.8784 160.892 87.4169C172.44 78.8854 168.968 55.8984 152.554 42.3986C145.865 36.9041 132.932 28.0713 109.5 32.2987L137.131 53.8771C137.131 53.8771 119.088 88.987 121.359 89.3982Z" fill="#016099"/>
<path d="M130.601 18.9355L131.53 34.5399C131.941 39.6698 114.949 40.2542 114.908 35.7637L115.162 25.9069L130.601 18.9355Z" fill="#FDB88E"/>
<path d="M128.614 2.69675C124.675 -2.87934 115.457 1.92086 115.457 1.92086C103.67 -0.275279 100.291 9.45998 100.152 11.9991C100.032 14.2219 100.735 19.2901 108.331 19.5649C111.377 19.6748 110.533 19.758 114.112 19.4466C115.794 19.3001 126.729 18.9055 129.138 20.0594C129.971 24.0137 129.471 32.8116 131.47 32.8632C134.384 32.9381 132.739 22.4037 132.739 22.4037C135.199 18.0797 136.225 3.58919 128.614 2.69675Z" fill="#002869"/>
<path d="M109.022 22.6483C109.049 23.2094 109.189 26.6094 109.712 27.9164C109.935 28.4629 110.186 28.9975 110.464 29.5181C111.52 31.5294 114.681 35.4056 118.843 34.976C123.215 34.5181 127.565 30.4389 128.252 23.9787C131.387 24.1801 132.524 19.6996 131.25 17.6167C130.672 16.6693 129.252 15.9351 127.963 16.9507C128.157 14.8278 129.008 14.4449 128.772 13.5924C124.99 0.137533 110.619 9.70296 108.757 11.4945C106.644 15.4888 108.986 21.6627 109.022 22.6483Z" fill="#FDB88E"/>
<path d="M120.968 23.7106C121.037 24.2335 121.26 24.724 121.608 25.1201C121.957 25.5163 122.415 25.8001 122.925 25.9357C123.434 26.0713 123.973 26.0526 124.472 25.8819C124.971 25.7112 125.408 25.3962 125.728 24.9768C126.048 24.5574 126.236 24.0526 126.269 23.5262C126.302 22.9997 126.177 22.4755 125.912 22.0198C125.646 21.5642 125.251 21.1976 124.777 20.9665C124.303 20.7355 123.771 20.6503 123.248 20.7219C122.902 20.7682 122.568 20.8823 122.266 21.0576C121.964 21.2329 121.7 21.4661 121.488 21.7437C121.276 22.0212 121.121 22.3378 121.032 22.6754C120.943 23.0129 120.921 23.3647 120.968 23.7106Z" fill="#ED715D"/>
<path d="M109.022 22.6486C109.049 23.2097 109.031 23.7291 109.042 24.0488C109.09 25.5606 109.185 26.6096 109.708 27.9166C110.366 27.7797 110.948 27.3992 111.337 26.8515C111.727 26.3037 111.895 25.6291 111.807 24.9629C111.72 24.2967 111.384 23.688 110.867 23.2588C110.35 22.8296 109.69 22.6116 109.019 22.6486H109.022Z" fill="#ED715D"/>
<path d="M113.547 13.9704C107.347 13.1745 108.178 17.0972 104.357 16.2814C101.23 15.6154 105.68 7.20214 109.708 8.43924C114.328 9.85449 121.666 -4.39791 130.561 12.0157C131.666 14.0586 129.686 15.3457 127.991 16.9324C127.233 17.64 127.148 18.6507 127.325 19.9294C127.337 20.0055 127.323 20.0836 127.285 20.1504C127.246 20.2172 127.186 20.2686 127.113 20.2957C126.657 20.4622 125.843 20.5721 125.376 18.4326C124.723 15.4356 124.552 9.90111 121.368 10.7602C118.6 11.5095 118.082 14.5515 113.547 13.9704Z" fill="#002869"/>
<path d="M119.837 20.7103C121.564 20.7336 122.918 19.6197 122.986 19.5614C123.038 19.5173 123.07 19.4544 123.075 19.3866C123.081 19.3189 123.059 19.2518 123.015 19.2001C122.971 19.1485 122.908 19.1164 122.84 19.1111C122.772 19.1058 122.705 19.1277 122.653 19.1718C122.635 19.1868 120.727 20.7519 118.701 19.9877C118.67 19.9727 118.635 19.9645 118.6 19.9634C118.565 19.9624 118.53 19.9686 118.498 19.9817C118.465 19.9948 118.436 20.0145 118.411 20.0395C118.386 20.0645 118.367 20.0943 118.355 20.1271C118.342 20.1598 118.337 20.1948 118.338 20.2298C118.34 20.2649 118.349 20.2992 118.364 20.3306C118.38 20.3621 118.402 20.39 118.428 20.4127C118.455 20.4353 118.486 20.4521 118.52 20.4622C118.941 20.6216 119.387 20.7056 119.837 20.7103Z" fill="#002869"/>
<path d="M111.727 21.6177C112.429 21.6286 113.12 21.4342 113.714 21.0583C113.769 21.0199 113.806 20.9611 113.818 20.8949C113.83 20.8287 113.815 20.7605 113.777 20.7053C113.738 20.6501 113.68 20.6124 113.613 20.6006C113.547 20.5887 113.479 20.6036 113.424 20.642C113.357 20.687 111.798 21.7309 109.95 20.5405C109.893 20.5046 109.824 20.4925 109.758 20.5069C109.693 20.5212 109.635 20.5608 109.598 20.6171C109.58 20.645 109.568 20.6763 109.561 20.7091C109.555 20.7419 109.556 20.7757 109.563 20.8083C109.57 20.841 109.583 20.8719 109.602 20.8994C109.621 20.9269 109.645 20.9503 109.673 20.9684C110.282 21.3757 110.994 21.601 111.727 21.6177Z" fill="#002869"/>
<path d="M116.178 26.135C116.723 26.1187 117.253 25.959 117.716 25.6721C117.745 25.6558 117.77 25.634 117.791 25.6078C117.811 25.5816 117.827 25.5516 117.836 25.5195C117.845 25.4875 117.847 25.4539 117.844 25.4208C117.84 25.3877 117.829 25.3557 117.813 25.3266C117.797 25.2975 117.775 25.272 117.749 25.2513C117.722 25.2307 117.692 25.2154 117.66 25.2064C117.628 25.1973 117.595 25.1947 117.562 25.1986C117.528 25.2025 117.496 25.2129 117.467 25.2292C116.412 25.8236 115.667 25.6688 115.401 25.2525C115.151 24.8663 115.392 24.445 115.759 23.8889L115.894 23.6824C116.538 22.6651 116.48 21.2116 116.478 21.15C116.471 21.0858 116.439 21.0267 116.39 20.9848C116.341 20.9428 116.278 20.9211 116.213 20.9241C116.149 20.9271 116.088 20.9544 116.043 21.0007C115.997 21.047 115.972 21.1087 115.97 21.1733C115.97 21.1866 116.022 22.5303 115.471 23.411L115.342 23.6092C114.999 24.1253 114.531 24.833 114.979 25.5289C115.112 25.7222 115.292 25.879 115.501 25.9849C115.711 26.0908 115.944 26.1424 116.178 26.135Z" fill="#ED715D"/>
<path d="M115.692 27.8781C115.728 27.867 115.766 27.8639 115.803 27.8691C115.84 27.8743 115.876 27.8876 115.907 27.9081C117.572 28.9986 119.549 27.1721 119.571 27.1538C119.595 27.1308 119.624 27.1128 119.655 27.101C119.686 27.0891 119.72 27.0835 119.753 27.0846C119.786 27.0857 119.819 27.0934 119.85 27.1073C119.88 27.1212 119.908 27.1409 119.93 27.1655C119.976 27.215 120.001 27.2804 119.998 27.3477C119.996 27.415 119.968 27.4787 119.919 27.5251C119.827 27.6117 117.627 29.6413 115.63 28.3326C115.603 28.3144 115.578 28.2909 115.56 28.2634C115.541 28.2358 115.528 28.2049 115.521 28.1722C115.514 28.1396 115.514 28.1059 115.52 28.0731C115.526 28.0404 115.539 28.0092 115.557 27.9813C115.588 27.932 115.636 27.8954 115.692 27.8781Z" fill="#ED715D"/>
<path d="M118.475 35.0511C117.794 35.0442 117.115 34.997 116.44 34.9096C116.383 34.8979 116.333 34.8653 116.3 34.8184C116.266 34.7714 116.251 34.7135 116.258 34.6562C116.266 34.5989 116.294 34.5464 116.338 34.5091C116.382 34.4718 116.439 34.4525 116.496 34.4551C122.43 35.2076 126.227 32.8317 127.781 27.3921C127.798 27.3338 127.837 27.2845 127.89 27.255C127.943 27.2255 128.005 27.2182 128.063 27.2348C128.122 27.2513 128.171 27.2904 128.201 27.3433C128.23 27.3962 128.237 27.4587 128.221 27.517C126.782 32.5569 123.508 35.0844 118.475 35.0511Z" fill="#ED715D"/>
<path d="M85.412 56.5129C82.8157 62.775 45.7059 75.6304 49.3231 57.114C50.5322 50.9202 41.8289 53.9505 48.1574 40.6588C50.4373 35.8702 44.1121 27.0557 56.7974 24.1237C61.4438 23.0497 67.8056 14.1853 72.3787 28.5376C74.204 34.2568 85.412 56.5129 85.412 56.5129Z" fill="#012869"/>
<path d="M61.4621 91.6579C66.888 118.356 73.1198 126.466 91.7721 120.654C110.424 114.841 115.291 92.5387 115.487 92.4121C119.151 90.1061 107.232 73.869 105.235 70.872C93.0911 52.6403 76.1158 48.7575 66.7864 55.1528C54.704 63.4411 57.8516 73.8923 61.4621 91.6579Z" fill="#ED715D"/>
<path d="M53.0303 101.541C53.3185 102.968 54.9622 107.022 57.4486 106.808C62.7645 106.348 62.9144 105.554 65.146 104.615L64.8746 99.1953C64.8746 99.1953 62.4481 98.6958 61.294 98.6958C59.8501 98.6875 52.7239 100.016 53.0303 101.541Z" fill="#FDB88E"/>
<path d="M67.2327 92.9198C65.4974 96.0351 58.4062 122.184 41.2527 103.756C25.7647 87.1057 44.9166 75.2842 48.0808 68.1247C53.7698 55.2559 63.2491 52.3355 72.8184 50.7471L67.2327 92.9198Z" fill="#ED715D"/>
<path d="M73.2015 138.033C73.2015 138.033 65.6623 75.472 41.5142 89.0951C24.1559 98.8869 62.8028 140.742 62.8028 140.742C64.1351 143.066 72.8867 139.636 73.2015 138.033Z" fill="#E8E2E4"/>
<path d="M115.487 92.4118C109.745 94.9925 101.498 97.2902 95.0597 93.0878C80.351 83.489 56.6609 75.4055 47.9176 84.3465C42.8465 89.533 41.5042 100.331 64.2484 119.332C66.3135 121.056 76.1542 124.893 92.4167 126.801C121.499 130.207 128.734 103.557 115.487 92.4118Z" fill="#E8E2E4"/>
<path d="M80.9737 132.886C80.9737 132.886 73.4296 70.3256 49.2782 83.9486C31.9215 93.7438 70.5668 135.595 70.5668 135.595C71.9074 137.919 80.659 134.49 80.9737 132.886Z" fill="#E8E2E4"/>
<path d="M53.6531 109.593C53.7061 109.594 53.7582 109.579 53.803 109.551C53.8479 109.523 53.8837 109.482 53.906 109.434C53.9284 109.386 53.9364 109.333 53.929 109.28C53.9217 109.228 53.8993 109.179 53.8646 109.138C47.9042 102.465 46.0057 97.2287 45.4644 94.0136C44.8799 90.5421 45.7059 88.6173 45.7142 88.5974C45.743 88.5313 45.7446 88.4565 45.7188 88.3892C45.6929 88.322 45.6416 88.2675 45.576 88.2377C45.5433 88.223 45.5081 88.215 45.4723 88.214C45.4365 88.213 45.4008 88.2191 45.3674 88.2319C45.3339 88.2448 45.3034 88.2641 45.2774 88.2888C45.2515 88.3135 45.2307 88.3431 45.2163 88.3759C45.1797 88.4575 44.3203 90.4339 44.9182 94.0486C45.4611 97.3453 47.3846 102.707 53.4566 109.501C53.4815 109.529 53.5117 109.552 53.5455 109.567C53.5793 109.583 53.6159 109.592 53.6531 109.593Z" fill="#016099"/>
<path d="M67.7923 105.644C78.3125 102.825 86.4979 106.941 96.2087 101.723C99.771 99.8097 103.555 96.16 105.868 90.6355C105.996 90.3508 106.113 90.0561 106.228 89.7598C111.224 76.811 108.098 56.8061 89.6055 50.0562L81.3918 64.838C76.414 69.8763 83.4486 79.3235 79.4483 81.8826C71.4861 86.9925 71.9907 91.1933 69.5776 94.7031C69.396 94.9712 67.7456 96.548 66.012 97.2756C64.2117 98.0248 66.1269 106.088 67.7923 105.644Z" fill="#ED715D"/>
<path d="M76.6105 42.4619L81.4402 50.9534C82.5743 53.5408 69.5643 59.3517 68.2253 56.5844L66.848 52.4219L76.6105 42.4619Z" fill="#FDB88E"/>
<path d="M75.8477 41.3679C76.9219 50.1674 70.685 53.251 65.7122 53.1128C62.2565 53.0162 60.1315 48.9653 59.2788 46.9723L59.2672 46.9473C58.6749 45.6816 58.4005 44.2905 58.4678 42.8947C58.4678 42.5833 58.4911 42.267 58.4994 41.9406C58.5111 41.4162 58.4661 40.8617 58.4245 40.229C58.2963 38.2527 58.631 37.3769 59.0057 36.6743C60.7943 33.3176 63.9585 35.1957 66.425 29.7861C68.0154 26.3013 75.1449 35.6186 75.8477 41.3679Z" fill="#FDB88E"/>
<path d="M68.9514 43.8105C68.9022 44.1778 68.952 44.5515 69.0957 44.8932C69.2394 45.2348 69.4717 45.5318 69.7686 45.7537C70.0655 45.9755 70.4163 46.1141 70.7847 46.155C71.1531 46.196 71.5257 46.1378 71.8641 45.9866C72.1039 45.8881 72.321 45.7415 72.502 45.556C72.683 45.3704 72.8241 45.1498 72.9167 44.9077C73.0622 44.5606 73.1107 44.1805 73.0571 43.808C73.0035 43.4354 72.8498 43.0844 72.6124 42.7924C72.375 42.5003 72.0627 42.2782 71.7089 42.1496C71.3551 42.021 70.9731 41.9908 70.6034 42.0622C70.1783 42.141 69.7892 42.3528 69.4922 42.667C69.1953 42.9812 69.0059 43.3816 68.9514 43.8105Z" fill="#ED715D"/>
<path d="M60.8126 44.9193C60.8184 45.3813 60.6694 45.8319 60.3893 46.1994C60.1092 46.5669 59.7142 46.8302 59.2672 46.9472C58.6749 45.6815 58.4005 44.2904 58.4678 42.8946C58.5506 42.8829 58.634 42.8762 58.7176 42.8746C59.2665 42.8684 59.7954 43.0802 60.1882 43.4636C60.581 43.847 60.8056 44.3705 60.8126 44.9193Z" fill="#ED715D"/>
<path d="M66.6615 53.5393C66.6092 53.5423 66.5579 53.5252 66.5178 53.4915C66.4778 53.4578 66.4522 53.4101 66.4462 53.3582C66.4403 53.3062 66.4544 53.2539 66.4858 53.2121C66.5171 53.1702 66.5633 53.1419 66.6148 53.133C66.6715 53.133 72.2122 52.452 74.4421 48.819C74.4726 48.7778 74.5174 48.7494 74.5677 48.7396C74.618 48.7298 74.6702 48.7392 74.7139 48.766C74.7577 48.7928 74.7897 48.8349 74.8039 48.8842C74.818 48.9335 74.8131 48.9863 74.7902 49.0321C72.447 52.8367 66.888 53.5126 66.6615 53.5393Z" fill="#ED715D"/>
<path d="M61.4006 41.6061C59.7352 41.8258 58.9674 40.9617 58.9291 40.9168C58.9092 40.894 58.894 40.8676 58.8843 40.839C58.8746 40.8103 58.8707 40.7801 58.8727 40.7499C58.8747 40.7198 58.8826 40.6903 58.896 40.6632C58.9094 40.6362 58.928 40.612 58.9508 40.5921C58.9735 40.5722 59 40.557 59.0286 40.5473C59.0572 40.5376 59.0875 40.5337 59.1176 40.5357C59.1478 40.5377 59.1772 40.5456 59.2043 40.559C59.2314 40.5724 59.2556 40.591 59.2755 40.6137C59.3172 40.662 60.2581 41.671 62.3915 40.8801C62.4489 40.858 62.5127 40.8597 62.569 40.8847C62.6252 40.9096 62.6692 40.9559 62.6913 41.0133C62.7134 41.0707 62.7117 41.1346 62.6867 41.1908C62.6617 41.247 62.6154 41.2909 62.558 41.313C62.1846 41.4543 61.7963 41.5526 61.4006 41.6061Z" fill="#002869"/>
<path d="M68.6599 41.403C68.0309 41.4503 67.4002 41.3356 66.828 41.07C66.775 41.0413 66.7353 40.993 66.7176 40.9354C66.6998 40.8778 66.7054 40.8156 66.7332 40.7621C66.7609 40.7086 66.8086 40.6681 66.8659 40.6494C66.9232 40.6307 66.9855 40.6352 67.0395 40.662C67.1111 40.6987 68.8398 41.5512 70.5701 40.1209C70.6179 40.0878 70.6764 40.0738 70.7339 40.0818C70.7915 40.0898 70.844 40.1191 70.8809 40.164C70.9179 40.2089 70.9365 40.266 70.9333 40.3241C70.93 40.3821 70.905 40.4368 70.8632 40.4772C70.2445 41.0098 69.4735 41.3337 68.6599 41.403Z" fill="#002869"/>
<path d="M64.663 46.1498C64.3953 46.1853 64.123 46.1591 63.867 46.0732C63.6678 46.0117 63.4879 45.8998 63.3446 45.7485C63.2014 45.5971 63.0996 45.4113 63.0493 45.209C62.931 44.6946 63.2374 44.26 63.5339 43.8371C63.6857 43.6366 63.8168 43.4213 63.9252 43.1944C64.2467 42.4401 64.2283 41.1964 64.2283 41.1747C64.2279 41.1138 64.2513 41.055 64.2937 41.0111C64.336 40.9673 64.3939 40.9417 64.4548 40.94C64.485 40.9395 64.515 40.945 64.543 40.9562C64.5711 40.9673 64.5967 40.9839 64.6183 41.0049C64.64 41.0259 64.6573 41.051 64.6692 41.0787C64.6812 41.1064 64.6876 41.1362 64.688 41.1664C64.688 41.2214 64.7096 42.53 64.3549 43.3742C64.2338 43.6318 64.0865 43.8761 63.9153 44.1035C63.6555 44.4731 63.4306 44.7928 63.5022 45.1025C63.5364 45.2282 63.6022 45.3431 63.6935 45.4361C63.7848 45.5291 63.8984 45.5971 64.0235 45.6336C64.2144 45.6998 64.4184 45.7193 64.6183 45.6903C64.8183 45.6613 65.0084 45.5848 65.1726 45.4671C65.1962 45.4482 65.2234 45.4341 65.2524 45.4257C65.2815 45.4172 65.3119 45.4146 65.342 45.4179C65.3721 45.4213 65.4012 45.4305 65.4277 45.4451C65.4542 45.4596 65.4776 45.4793 65.4965 45.5029C65.5154 45.5265 65.5295 45.5536 65.538 45.5827C65.5464 45.6117 65.549 45.6422 65.5457 45.6722C65.5424 45.7023 65.5332 45.7314 65.5186 45.758C65.504 45.7845 65.4844 45.8078 65.4607 45.8268C65.2285 46.0038 64.953 46.1154 64.663 46.1498Z" fill="#ED715D"/>
<path d="M65.7422 48.3312C66.3751 48.17 66.968 47.8804 67.4842 47.4804C67.5361 47.4362 67.5683 47.3733 67.5738 47.3053C67.5793 47.2374 67.5575 47.1701 67.5133 47.1182C67.4692 47.0663 67.4062 47.0341 67.3383 47.0287C67.2703 47.0232 67.203 47.0449 67.1511 47.0891C67.1345 47.1024 65.4624 48.4594 63.4723 47.7368C63.4408 47.7253 63.4073 47.7201 63.3739 47.7216C63.3404 47.723 63.3075 47.7311 63.2771 47.7452C63.2467 47.7593 63.2194 47.7793 63.1967 47.804C63.1741 47.8287 63.1565 47.8576 63.145 47.8891C63.1335 47.9206 63.1284 47.9541 63.1298 47.9875C63.1313 48.021 63.1393 48.0539 63.1534 48.0843C63.1676 48.1147 63.1876 48.142 63.2123 48.1646C63.237 48.1873 63.2659 48.2048 63.2974 48.2163C64.0816 48.5029 64.9346 48.543 65.7422 48.3312Z" fill="#ED715D"/>
<path d="M62.2915 26.5479C62.2915 26.5479 73.3963 11.6977 86.3913 25.6821C90.5364 30.1409 98.4703 27.74 98.3038 39.2318C98.2472 43.1229 99.2214 44.3933 101.055 47.1672C104.312 52.094 102.872 57.0973 97.0581 58.7806C92.4916 60.1009 94.7399 65.6887 88.5746 65.9401C83.5568 66.1432 82.4327 60.6004 78.1493 60.1842C68.6849 59.2635 74.7053 48.0597 75.075 43.406C75.1016 43.073 75.1416 42.725 75.1783 42.3754C75.2615 41.2182 74.9734 40.2858 74.5287 39.2585C72.1039 33.6524 63.6022 36.9758 64.0551 29.5698L62.2915 26.5479Z" fill="#012869"/>
<path d="M98.5652 100.797C98.6079 100.811 98.6533 100.814 98.6974 100.806C98.7416 100.798 98.7831 100.78 98.8184 100.752C104.481 96.2564 107.515 86.8625 107.545 86.7659C107.563 86.6981 107.555 86.6259 107.521 86.5643C107.488 86.5027 107.431 86.4563 107.365 86.4349C107.298 86.4135 107.225 86.4186 107.162 86.4492C107.099 86.4799 107.05 86.5337 107.025 86.5994C106.997 86.6926 104.011 95.9234 98.4787 100.321C98.4223 100.366 98.386 100.431 98.3779 100.503C98.3698 100.575 98.3904 100.647 98.4354 100.704C98.4676 100.748 98.5131 100.78 98.5652 100.797Z" fill="#E8E2E4"/>
<path d="M75.8361 84.4201C75.8843 84.4355 75.936 84.4372 75.9851 84.4248C76.0343 84.4125 76.079 84.3866 76.1142 84.3501C76.5122 83.9406 77.0585 83.5909 77.6913 83.1846C78.6006 82.6036 79.7314 81.8793 80.8306 80.6871C82.0346 79.3784 81.8198 77.9116 81.5933 76.3581C81.3568 74.7531 81.0937 72.9332 82.1828 70.7404C82.2015 70.7081 82.2134 70.6724 82.2178 70.6353C82.2221 70.5983 82.2188 70.5608 82.2081 70.525C82.1973 70.4893 82.1794 70.4562 82.1553 70.4277C82.1313 70.3991 82.1017 70.3759 82.0683 70.3592C82.0349 70.3426 81.9985 70.333 81.9612 70.331C81.924 70.329 81.8867 70.3346 81.8517 70.3475C81.8167 70.3605 81.7848 70.3804 81.7578 70.4062C81.7308 70.432 81.7094 70.463 81.6949 70.4973C80.5291 72.8417 80.8056 74.7531 81.0521 76.4381C81.2786 77.9815 81.4568 79.202 80.4292 80.3192C79.4017 81.4364 78.3258 82.1324 77.3982 82.7268C76.7321 83.148 76.1658 83.5143 75.7328 83.9689C75.7073 83.994 75.687 84.0239 75.6732 84.0569C75.6593 84.0899 75.6522 84.1254 75.6522 84.1612C75.6522 84.197 75.6593 84.2324 75.6732 84.2654C75.687 84.2984 75.7073 84.3284 75.7328 84.3535C75.7622 84.3826 75.7974 84.4053 75.8361 84.4201Z" fill="#E8E2E4"/>
<path d="M113.436 72.0423C112.04 70.4356 110 69.1568 109.257 68.5092C107.682 67.1289 106.508 65.4173 105.558 65.7519C103.422 66.5045 108.256 70.8585 107.635 71.984C106.989 72.2637 105.019 71.3963 103.711 70.6404C102.144 69.7363 98.6369 66.5195 97.8225 67.2321C96.5368 68.3593 99.9742 70.4605 101.013 71.2414C99.9259 70.4372 96.6051 66.9707 95.8957 68.3144C95.1429 69.7363 100.076 73.0313 100.8 73.5658C100.437 73.3227 96.4153 69.1885 95.416 70.0876C94.0654 71.3064 99.6062 74.8961 100.331 75.4289C99.871 75.1275 96.5851 71.5461 95.4094 72.7982C94.8115 73.4342 99.2897 77.2121 100.014 77.7466C103.202 80.1009 110.981 82.5068 112.37 83.6973L118.199 78.3693C118.199 78.3693 116.716 76.1232 115.885 75.1592C114.853 73.9454 113.958 72.645 113.436 72.0423Z" fill="#FDB88E"/>
<path d="M111.139 84.5731C116.501 90.4389 138.178 102.655 160.892 87.417C160.892 87.417 144.183 60.5772 142.74 64.5865C138.961 75.0577 132.431 76.6411 118.203 74.7846C115.639 74.1619 110.461 81.6761 111.139 84.5731Z" fill="#016099"/>
<path d="M124.857 75.6203C124.785 75.6128 124.718 75.5776 124.672 75.5221C124.625 75.4666 124.602 75.3952 124.607 75.3229C124.612 75.2506 124.644 75.1831 124.698 75.1345C124.752 75.0859 124.823 75.0601 124.895 75.0625C127.204 75.1293 129.51 74.8441 131.733 74.2167C135.102 73.266 139.63 71.0532 142.077 65.9366C142.114 65.8798 142.171 65.8384 142.236 65.8202C142.302 65.8021 142.371 65.8084 142.433 65.8379C142.494 65.8675 142.542 65.9183 142.569 65.9809C142.595 66.0435 142.598 66.1136 142.576 66.1781C141.479 68.5004 139.809 70.5057 137.723 72.0056C135.949 73.2613 133.967 74.1946 131.868 74.7628C129.59 75.4117 127.225 75.7021 124.858 75.6236L124.857 75.6203Z" fill="#002969"/>
<path d="M158.511 89.6446C158.447 89.6441 158.386 89.623 158.335 89.5843C158.285 89.5456 158.248 89.4914 158.232 89.4301C158.215 89.3689 158.219 89.3038 158.242 89.2448C158.266 89.1858 158.308 89.1362 158.363 89.1034C163.618 86.0032 165.78 80.1807 165.802 80.1224C165.814 80.0854 165.834 80.0512 165.859 80.0219C165.885 79.9926 165.916 79.9687 165.951 79.9517C165.986 79.9346 166.024 79.9248 166.063 79.9228C166.102 79.9207 166.141 79.9265 166.178 79.9397C166.214 79.953 166.248 79.9734 166.277 79.9999C166.305 80.0264 166.328 80.0583 166.344 80.0938C166.36 80.1293 166.369 80.1677 166.37 80.2066C166.371 80.2456 166.364 80.2843 166.35 80.3206C166.26 80.567 164.1 86.3961 158.659 89.6046C158.614 89.6313 158.563 89.6451 158.511 89.6446Z" fill="#002969"/>
<path d="M77.195 123.963C83.1904 150.374 99.0998 158.762 106.251 159.135C113.402 159.508 135.705 133.537 140.496 106.897C144.795 83.0095 124.405 86.8456 109.142 97.7397C99.1814 104.849 67.4658 81.0897 77.195 123.963Z" fill="#A9D3E1"/>
<path d="M24.9003 126.639C40.8514 144.729 66.5349 157.109 97.2179 158.654C97.5977 158.674 97.969 158.749 98.3371 158.792C102.895 159.32 106.764 159.41 109.607 159.055C115.684 158.293 88.956 143.181 76.6721 119.173C76.409 118.656 76.1508 118.134 75.8977 117.608C75.1833 116.11 74.5271 114.573 73.9409 113.008C63.0659 84.0186 51.3133 89.1984 39.3175 97.1055C28.6124 104.15 -18.5945 77.3086 24.9003 126.639Z" fill="#A9D3E1"/>
<path d="M99.0965 158.876C103.411 159.27 107.749 159.342 112.075 159.092C112.432 159.073 112.789 159.051 113.146 159.027C136.441 157.514 161.62 150.234 180.907 133.401C210.834 107.272 208.219 88.6425 189.424 92.7218C156.577 99.848 156.116 81.836 140.15 113.886C139.693 114.801 139.211 115.707 138.706 116.603C138.219 117.464 137.711 118.316 137.184 119.157C122.485 142.627 92.9379 158.293 99.0965 158.876Z" fill="#A9D3E1"/>
<path d="M76.4107 119.612C76.4229 120.016 76.4574 120.42 76.5139 120.82C77.1068 125.369 80.1778 135.524 85.1906 145.214C88.3048 151.243 92.6448 158.035 97.8358 161.864C98.2122 161.913 98.5869 161.959 98.9533 162.002C93.1112 158.07 88.3631 150.254 85.6486 144.994C81.197 136.368 78.2759 127.397 77.29 122.384C77.0943 121.468 76.9718 120.537 76.9236 119.602C76.9197 119.536 76.8902 119.474 76.8413 119.429C76.7925 119.385 76.7282 119.361 76.6621 119.363C76.6292 119.363 76.5963 119.368 76.5656 119.38C76.5349 119.393 76.507 119.411 76.4835 119.434C76.46 119.457 76.4414 119.485 76.4289 119.515C76.4164 119.546 76.4102 119.579 76.4107 119.612Z" fill="#016099"/>
<path d="M112.075 159.092C112.5 159.273 112.833 159.273 113.146 159.027C118.347 155.442 123.774 148.296 129.37 137.651C132.681 131.351 135.394 125.016 137.207 120.462C137.227 120.431 137.24 120.396 137.245 120.36C137.25 120.324 137.248 120.287 137.237 120.252C137.227 120.217 137.209 120.184 137.185 120.156C137.162 120.129 137.132 120.106 137.099 120.091C137.065 120.076 137.029 120.068 136.993 120.067C136.956 120.067 136.92 120.075 136.886 120.09C136.853 120.105 136.823 120.127 136.799 120.154C136.775 120.182 136.757 120.214 136.746 120.249C134.936 124.794 132.224 131.133 128.919 137.437C123.148 148.394 117.436 155.713 112.075 159.092Z" fill="#016099"/>
<path d="M54.0295 99.3882C54.1078 98.4791 55.7182 98.9536 57.76 98.7655C58.6493 98.6839 60.6161 98.1811 62.5446 98.266C63.7637 98.3209 64.3549 98.5757 65.1876 98.8371L62.5763 102.795C61.5421 100.587 53.8713 101.198 54.0295 99.3882Z" fill="#FDB88E"/>
<path d="M62.0117 106.483C60.5295 102.467 58.6143 100.035 54.9505 98.8424C52.6906 98.1065 48.4788 97.3572 44.6251 99.0905C44.4205 99.1835 44.2407 99.3233 44.1001 99.4985C43.9595 99.6738 43.8621 99.8796 43.8157 100.099C43.3378 102.319 41.6774 104.104 39.4991 104.61C39.333 104.649 39.1793 104.729 39.0517 104.843C38.9241 104.956 38.8266 105.099 38.7679 105.259C37.5322 108.589 37.9686 112.217 38.31 114.517L29.3668 108.916C29.107 108.791 27.4183 110.702 28.5225 112.151C30.7741 115.104 44.4619 129.009 49.4847 127.635C51.9711 126.956 56.9423 125.581 59.3821 124.75C62.4164 123.714 65.2109 115.154 62.0117 106.483ZM47.0682 100.258C49.8011 99.2104 56.6275 98.0365 60.2597 107.552C61.4089 110.561 44.6784 101.172 47.0682 100.258Z" fill="#016099"/>
<path d="M54.5825 101.2C54.8689 102.627 56.5126 106.679 59.0007 106.466C64.3166 106.007 64.4165 105.72 66.6482 104.781C65.6623 103.048 65.3375 100.975 65.3025 98.7507C64.5026 98.5172 63.6771 98.383 62.8444 98.3511C61.4005 98.3444 54.2744 99.6748 54.5825 101.2Z" fill="#FDB88E"/>
<path d="M60.0433 100.929C59.4904 99.8264 54.1845 99.5783 54.5775 101.225L58.8858 106.22C58.8858 106.22 60.1032 106.553 60.363 105.407C60.6345 104.22 60.9542 102.748 60.0433 100.929Z" fill="#FDB88E"/>
<path d="M22.647 195.081C21.3614 194.649 20.6069 195.991 19.626 197.388C18.6418 196.006 17.869 194.619 16.4451 195.224C15.2994 195.707 15.376 197.633 16.3236 200.658C16.8632 202.385 18.0139 205.001 19.4129 205.022C20.8817 205.046 22.1591 202.573 22.9368 200.603C24.1242 197.595 23.8178 195.475 22.647 195.081Z" fill="#ED715D"/>
<path d="M31.7716 164.796C30.6642 164.425 30.013 165.58 29.1686 166.784C28.321 165.594 27.6548 164.4 26.4291 164.916C25.4432 165.332 25.5081 166.991 26.3242 169.598C26.7888 171.085 27.7814 173.338 28.9888 173.356C30.2545 173.378 31.3553 171.246 32.0248 169.55C33.044 166.961 32.7792 165.134 31.7716 164.796Z" fill="#ED715D"/>
<path d="M26.2143 123.689C25.0102 123.231 24.3491 124.37 23.4814 125.545C22.5271 124.265 21.7711 122.996 20.4687 123.441C19.4212 123.797 19.2913 125.539 20.517 128.231C21.2681 129.883 22.8036 132.155 23.5147 132.269C24.2958 132.395 25.9562 129.971 26.6506 128.579C27.8864 126.096 27.3118 124.105 26.2143 123.689Z" fill="#ED715D"/>
<path d="M19.6876 141.956C18.1089 141.489 17.1896 143.159 16.0071 144.908C14.7864 143.266 13.8255 141.611 12.0868 142.41C10.6879 143.05 10.0268 145.719 11.9886 149.042C13.2243 151.136 14.9396 154.084 15.819 154.223C16.7416 154.37 18.9832 150.845 20.0973 148.676C21.9426 145.099 21.1265 142.382 19.6876 141.956Z" fill="#ED715D"/>
<path d="M67.7923 105.643C78.3192 102.825 86.313 106.564 96.2087 101.722C99.8726 99.9259 103.235 95.7933 105.535 90.2689C105.663 89.9842 83.5385 79.7977 79.3884 82.1104C70.7283 86.9389 71.9774 91.1929 69.5626 94.6961C69.381 94.9642 67.7306 96.5409 65.997 97.2685C64.2117 98.0244 66.1269 106.088 67.7923 105.643Z" fill="#ED715D"/>
</svg>
