<svg width="272" height="232" viewBox="0 0 272 232" fill="none" xmlns="http://www.w3.org/2000/svg">
<path d="M100.68 56.4257L104.025 221.141C104.025 225.641 98.7748 229.031 94.4248 229.031H17.4149C13.0649 229.031 9.53985 225.386 9.53985 220.886L5.81985 56.5157C5.81985 52.0157 9.56985 47.1707 13.9199 47.1707H87.1799C95.8349 47.1707 100.68 51.9257 100.68 56.4257Z" fill="#01609A"/>
<path d="M261.915 220.871C261.915 223.196 260.985 225.281 259.47 226.766C258.06 228.161 256.14 229.016 254.04 229.016H177.045C176.955 229.016 176.85 229.016 176.76 229.001C172.47 228.866 167.445 225.521 167.445 221.126L164.37 55.7357C164.37 51.2357 169.2 46.4807 177.87 46.4807H251.13C255.48 46.4807 259.23 51.3257 259.23 55.8257L261.915 220.871Z" fill="#E8E2E4"/>
<path d="M260.97 226.766C259.56 228.161 257.64 229.016 255.54 229.016H178.545C178.455 229.016 178.35 229.016 178.26 229.001C181.2 211.211 184.2 196.946 183.96 188.831C182.4 183.206 235.08 168.596 237.18 176.516C239.94 188.246 251.19 200.936 260.97 226.766Z" fill="#01609A"/>
<path d="M266.505 181.151C266.01 180.926 265.5 180.701 264.99 180.446C263.82 179.876 262.515 179.546 261.12 179.336C255.24 178.436 247.77 179.651 242.715 173.951C242.805 174.326 242.895 174.701 243 175.091C245.37 184.421 250.47 196.841 249.165 198.341C245.43 202.646 211.11 209.621 183.165 205.871C173.88 204.626 179.925 164.501 179.625 164.876C174.825 171.191 181.155 120.236 204.24 118.841C226.56 117.491 243.255 124.346 260.43 140.966C261.12 141.641 261.825 142.331 262.515 143.036C263.43 143.966 264.555 144.941 265.86 145.976L266.175 163.241L266.505 181.151Z" fill="#ED715D"/>
<path d="M232.575 167.081C236.85 172.901 241.845 174.731 242.985 175.091C242.88 174.701 242.79 174.326 242.7 173.951C242.64 173.936 237.3 172.166 233.205 166.616C233.07 166.436 232.83 166.406 232.65 166.526C232.485 166.661 232.455 166.901 232.575 167.081Z" fill="#002869"/>
<path d="M174.84 226.751C175.08 227.096 175.35 227.426 175.635 227.741C176.715 228.911 178.11 229.751 179.7 230.306C182.31 231.221 185.595 231.506 189.465 231.506H254.79C261.945 231.506 266.055 230.156 268.395 227.006C270.69 223.931 271.2 219.326 271.2 212.441L268.515 64.1356C268.515 53.9206 266.925 47.5906 259.815 45.1156C257.58 44.3356 254.745 44.0056 251.28 44.0056H239.865L245.565 47.4856C251.385 47.4856 254.805 48.5806 256.68 51.1156C258.42 53.4856 259.14 57.2356 259.14 64.1356L261.825 212.441C261.825 218.426 261.48 222.506 259.785 224.801C258.195 226.946 254.985 227.771 249.09 227.771H183.765C180.03 227.771 177.375 227.576 175.47 226.991C175.245 226.901 175.035 226.826 174.84 226.751Z" fill="#ED715D"/>
<path d="M265.005 181.151L264.675 163.226L264.36 145.961L262.875 64.1356C262.875 53.9206 261.24 47.5906 254.13 45.1156C251.895 44.3356 249.015 44.0056 245.55 44.0056H181.515C176.835 44.0056 173.295 44.7106 170.67 46.3306C169.395 47.1106 168.36 48.0256 167.505 49.2106C165.195 52.3756 164.31 56.8156 164.31 64.5556L166.725 213.686C166.725 220.196 167.22 224.801 169.965 227.756C171.045 228.926 172.395 229.766 173.985 230.321C176.595 231.236 179.88 231.521 183.75 231.521H249.075C255.69 231.521 259.74 230.366 262.155 227.696C262.35 227.486 262.545 227.261 262.71 227.021C265.005 223.946 265.545 219.341 265.545 212.456L265.005 181.151ZM260.205 213.686C260.205 213.911 260.025 214.091 259.8 214.091H171.96C171.735 214.091 171.555 213.911 171.555 213.686L169.14 64.5106C169.14 64.3606 169.14 64.2106 169.14 64.0606C169.14 63.0406 169.98 62.2156 171 62.2156H255.69C256.71 62.2156 257.55 63.0556 257.55 64.0756V64.0906L258.93 140.966L259.125 151.841L259.62 179.336L260.22 212.426C260.205 212.861 260.205 213.281 260.205 213.686Z" fill="#FDB88E"/>
<path d="M221.925 127.166C216.045 135.821 155.985 143.591 167.265 116.741C171.03 107.771 156.945 109.616 170.67 91.5257C175.62 85.0156 168.825 69.7156 188.895 69.2656C196.245 69.1006 208.62 57.7156 211.035 80.8156C211.98 90.0406 221.925 127.166 221.925 127.166Z" fill="#012869"/>
<path d="M14.0248 115.091C14.0398 115.181 14.0698 115.256 14.0848 115.331C14.2498 115.871 14.4748 116.366 14.7898 116.756C23.7898 128.441 60.5098 129.686 96.5548 124.586C106.605 123.326 116.595 121.586 125.88 119.441C141.36 115.841 154.92 111.101 163.71 105.551C168.585 102.476 171.99 99.1606 173.43 95.6506C173.625 95.1856 173.715 94.6606 173.73 94.0906C173.73 94.0156 173.73 93.9406 173.73 93.8506C173.595 91.6006 170.85 87.2356 170.115 85.5556C158.685 59.6206 124.515 51.2206 88.2898 55.3006V55.2706C87.9748 55.3156 87.6598 55.3606 87.3448 55.4056C87.0298 55.4356 86.7148 55.4806 86.3998 55.5106V55.5406C50.3848 61.0756 19.5898 78.1156 15.3448 106.151C15.0748 107.951 13.5598 112.871 14.0248 115.091Z" fill="#A9D3E0"/>
<path d="M154.389 100.122C156.5 94.1719 153.387 87.638 147.437 85.5277C141.488 83.4174 134.954 86.5298 132.844 92.4794C130.733 98.4291 133.846 104.963 139.795 107.073C145.745 109.184 152.279 106.071 154.389 100.122Z" fill="#ED715D"/>
<g opacity="0.85">
<g opacity="0.85">
<path opacity="0.85" d="M124.92 117.851C125.19 118.421 125.505 118.946 125.865 119.426C141.345 115.826 154.905 111.086 163.695 105.536C162.555 104.561 161.1 103.931 159.48 103.766C158.985 103.721 158.565 103.421 158.34 103.001C156.54 99.4757 152.61 97.6307 148.77 98.4857C147.015 98.8757 145.155 98.5607 143.685 97.5557C141.465 96.0407 138.555 95.5457 135.84 96.5657C132.705 97.7357 130.83 100.451 130.47 103.511C130.41 104.021 130.08 104.456 129.6 104.696C124.59 107.051 122.565 112.931 124.92 117.851Z" fill="white"/>
</g>
</g>
<path d="M174.105 93.7756C173.55 90.5206 172.365 88.4806 171.51 86.9956C171.255 86.5606 171.045 86.1706 170.865 85.8256C165.615 75.1306 154.32 66.1306 139.05 60.4906C128.475 56.5906 116.445 54.4456 104.115 54.2056C98.8948 54.1006 93.6298 54.3406 88.3948 54.9256C88.3498 54.9106 88.2898 54.9106 88.2448 54.9106C88.0348 54.9406 87.8248 54.9706 87.6148 55.0006L86.9848 55.0906C86.7748 55.1206 86.5648 55.1356 86.3548 55.1656C86.2948 55.1656 86.2498 55.1956 86.2048 55.2106C76.7248 56.6806 67.5748 59.1256 59.2048 62.3806C51.4798 65.3806 44.4148 69.0556 38.3398 73.3006C24.5398 82.9456 16.1848 95.0956 14.1598 108.446C14.0998 108.821 14.0248 109.211 13.9498 109.646C13.6498 111.311 13.2748 113.366 13.6498 115.196C13.6648 115.301 13.6948 115.376 13.7248 115.466C13.9198 116.081 14.1748 116.606 14.4898 117.011C18.7648 122.561 29.4898 126.146 45.4948 127.361C49.5898 127.676 53.9848 127.826 58.6198 127.826C70.2298 127.826 83.2948 126.851 96.5998 124.976C98.0248 124.796 99.4498 124.616 100.875 124.406C102.66 124.166 104.415 123.896 106.17 123.626C113.01 122.561 119.625 121.286 125.955 119.816C142.38 116.006 155.505 111.176 163.905 105.881C169.02 102.656 172.35 99.2506 173.775 95.8006C173.97 95.3206 174.09 94.7506 174.105 94.1056V94.0606C174.12 93.9706 174.12 93.8656 174.105 93.7756ZM173.37 94.0006V94.0606C173.355 94.6156 173.265 95.0956 173.1 95.5006C171.735 98.8156 168.51 102.086 163.515 105.236C155.19 110.486 142.155 115.271 125.805 119.066C119.535 120.521 112.95 121.796 106.17 122.846C104.415 123.116 102.66 123.386 100.875 123.626C99.4348 123.821 97.9798 124.016 96.5098 124.196C62.6248 128.996 24.3148 128.471 15.0898 116.516C14.8198 116.171 14.6098 115.736 14.4448 115.211C14.4298 115.151 14.3998 115.091 14.3848 115.016V115.001C14.0248 113.321 14.3998 111.341 14.6848 109.751C14.7598 109.316 14.8348 108.911 14.8948 108.521C16.8898 95.3656 25.1398 83.3956 38.7598 73.8706C45.2548 69.3256 52.9198 65.4256 61.3048 62.3356C69.1648 59.4406 77.6548 57.2506 86.4448 55.8856C86.4898 55.8856 86.5348 55.8706 86.5648 55.8406C86.7298 55.8256 86.8798 55.8106 87.0448 55.7806L87.7048 55.6906C87.8698 55.6606 88.0198 55.6456 88.1848 55.6156C88.2298 55.6306 88.2748 55.6306 88.3198 55.6306C93.6448 55.0306 98.9848 54.7906 104.28 54.9106C116.46 55.1806 128.34 57.2956 138.78 61.1506C153.855 66.7156 165 75.5806 170.175 86.1106C170.355 86.4856 170.595 86.9056 170.85 87.3256C171.72 88.8556 172.815 90.7456 173.355 93.8656C173.37 93.9256 173.37 93.9556 173.37 94.0006Z" fill="#ED715D"/>
<g opacity="0.85">
<g opacity="0.85">
<g opacity="0.85">
<g opacity="0.85">
<path opacity="0.85" d="M24.1048 92.5757C25.0948 87.9257 29.2048 84.5957 33.9748 84.6407C35.7298 84.6557 37.4248 83.8607 38.4748 82.4957C40.4848 79.8857 43.7248 78.2807 47.2648 78.6107C51.1198 78.9707 54.0298 81.4307 55.3498 84.7307C55.5748 85.2857 56.0698 85.6757 56.6698 85.7807C62.9998 86.8907 67.0198 92.8307 65.8798 99.0257C64.7398 105.266 58.5298 109.136 52.4698 108.086C50.7898 107.801 49.0348 108.416 47.9248 109.691C45.5548 112.406 41.9998 113.996 38.1748 113.606C35.8198 113.366 33.6148 112.406 31.8898 110.876C31.5448 110.576 31.2598 110.156 30.8998 109.886C30.1348 109.316 29.9548 109.646 29.0398 110.006C27.7948 110.486 26.4598 110.681 25.1398 110.576C20.7898 110.201 17.6848 106.661 17.3998 102.581C17.1298 98.7107 19.3948 95.1857 23.0698 93.7757C23.5948 93.5657 23.9848 93.1157 24.1048 92.5757Z" fill="white"/>
</g>
</g>
</g>
</g>
<path d="M103.155 220.091C91.1098 226.511 70.9948 229.226 52.5298 229.166C52.2898 229.166 52.0498 229.166 51.8098 229.166C31.0948 229.016 12.5998 225.386 10.1548 219.596C10.0648 219.371 9.65984 213.851 10.6648 211.856L10.0198 172.181L9.74985 155.561C11.1448 153.686 12.7198 151.871 14.4898 150.146C21.1498 143.606 30.4198 138.296 43.1398 135.386C48.5548 134.141 56.4898 136.076 56.4898 136.076C97.4098 145.196 94.4398 170.036 101.07 186.101C102.21 188.846 103.125 191.846 103.875 194.876C107.115 208.121 103.845 220.106 103.155 220.091Z" fill="#002869"/>
<path d="M42.0148 120.881L40.2298 139.376C39.4948 146.276 62.3698 147.641 62.5798 141.596V130.811L42.0148 120.881Z" fill="#FDB88E"/>
<path d="M66.6149 118.316C66.1799 118.721 66.1648 119.561 67.5298 120.716C66.7048 120.356 65.8498 120.671 65.6998 121.376C65.3848 122.771 70.0348 126.506 71.5498 128.366C72.8098 129.911 74.4448 131.936 74.2048 132.851C72.8698 134.396 65.9248 129.911 65.1748 132.206C64.9498 132.896 66.6298 134.156 69.7348 135.881C72.3448 137.336 73.9648 138.896 75.6748 140.066C77.6548 141.401 80.1298 141.821 81.7048 141.896C84.2848 142.001 87.0448 139.916 87.6148 136.616C88.1098 133.676 83.8648 125.366 80.1148 121.706C79.2598 120.881 72.6899 115.001 71.1899 116.306C70.8599 116.591 70.8149 117.101 71.3399 117.806C69.7649 116.756 69.0148 116.591 68.4448 117.131C68.1598 117.401 68.2199 117.896 68.4899 118.391C67.8899 117.971 67.1699 117.791 66.6149 118.316Z" fill="#FDB88E"/>
<path d="M71.7448 124.121C73.3799 125.831 74.0999 126.836 74.1449 126.896C74.2799 127.076 74.2349 127.331 74.0549 127.466C73.8749 127.601 73.6198 127.556 73.4848 127.376C73.4698 127.361 71.8348 125.096 67.9498 121.586C67.7848 121.436 67.7698 121.181 67.9198 121.016C68.0698 120.851 68.3248 120.836 68.4898 120.986C69.8399 122.186 70.9048 123.251 71.7448 124.121Z" fill="#EE715D"/>
<path d="M74.2649 123.161C75.4649 124.406 76.1099 125.231 76.1249 125.261C76.2599 125.441 76.2299 125.696 76.0499 125.831C75.8699 125.966 75.6149 125.936 75.4799 125.756C75.4499 125.726 72.8699 122.471 68.5798 119.096C68.3998 118.961 68.3698 118.706 68.5048 118.526C68.6398 118.346 68.8948 118.316 69.0748 118.451C71.2948 120.191 73.0649 121.901 74.2649 123.161Z" fill="#EE715D"/>
<path d="M78.1948 123.416C78.2098 123.431 78.2098 123.431 78.2248 123.446C78.3598 123.611 78.3448 123.866 78.1798 124.001C77.8948 124.256 77.6248 123.986 77.5198 123.881C74.9548 121.256 72.6898 119.186 71.2948 118.196C71.1148 118.061 71.0698 117.821 71.1898 117.626C71.3248 117.446 71.5648 117.401 71.7598 117.521C73.7248 118.901 76.5748 121.736 78.1048 123.296C78.1498 123.341 78.1798 123.371 78.1798 123.386C78.1948 123.401 78.1948 123.401 78.1948 123.416Z" fill="#EE715D"/>
<path d="M103.65 199.091C103.05 199.556 104.64 203.501 104.01 203.921C102.885 204.686 101.73 205.376 100.545 205.991C94.1998 209.276 87.0598 210.206 80.7898 206.546C58.5598 193.556 83.9548 183.161 79.4998 168.371C75.7048 155.756 83.2648 155.336 76.7998 142.826C75.8098 140.906 87.7048 133.886 89.8048 135.581C93.2848 138.371 96.5248 139.826 99.4198 141.566C101.4 142.736 101.04 144.401 102.645 146.336L102.9 155.591L103.155 162.086L103.41 192.581L103.65 199.091Z" fill="#002869"/>
<path d="M76.6498 183.851C76.6348 183.851 76.6199 183.836 76.6049 183.836C76.4399 183.761 76.3498 183.566 76.4248 183.386C78.3748 178.721 78.9599 175.106 78.2699 171.986C76.9199 165.971 77.9398 162.956 78.8248 160.286C79.8748 157.151 80.7898 154.436 77.8498 147.581C77.7748 147.416 77.8499 147.206 78.0299 147.131C78.1949 147.056 78.4049 147.131 78.4799 147.311C81.5249 154.406 80.5348 157.376 79.4848 160.511C78.5698 163.211 77.6399 166.016 78.9449 171.851C79.6799 175.106 79.0799 178.856 77.0699 183.656C76.9949 183.821 76.8148 183.896 76.6498 183.851Z" fill="#016099"/>
<path d="M71.9848 121.151C67.8748 121.196 69.0148 121.331 64.1998 120.791C61.9348 120.536 46.9948 123.746 43.7098 125.216C44.0098 129.386 42.0748 136.661 40.4248 136.886C36.5698 137.576 38.6548 125.231 38.6548 125.216C35.9398 119.216 35.1748 110.216 37.5748 104.156C37.5748 104.156 37.5748 104.156 37.5748 104.141C38.9698 100.601 41.4598 98.0658 45.2548 97.7208C50.7598 90.3558 62.9998 97.1358 62.9998 97.1358C74.4748 95.3058 79.8748 101.636 82.0348 106.601C82.8748 108.551 83.2348 110.276 83.2648 111.236C83.3398 114.251 82.2298 121.046 71.9848 121.151Z" fill="#002869"/>
<path d="M70.9498 125.291C70.8898 126.041 70.5898 130.616 69.8398 132.371C69.5548 133.046 69.1948 133.751 68.7748 134.501C67.2898 137.171 62.8948 142.286 57.2998 141.566C51.4348 140.801 45.7048 135.146 45.0148 126.431C40.7848 126.596 39.4048 120.521 41.1898 117.761C41.9998 116.501 43.9348 115.571 45.6448 116.981C45.4498 114.116 44.3248 113.576 44.6698 112.421C50.2348 94.4207 69.2398 107.816 71.6998 110.291C74.3998 115.721 71.0248 123.956 70.9498 125.291Z" fill="#FDB88E"/>
<path d="M54.9598 126.311C54.6448 128.261 52.8148 129.596 50.8498 129.281C48.8998 128.966 47.5648 127.136 47.8798 125.171C48.1948 123.221 50.0248 121.886 51.9898 122.201C53.9548 122.516 55.2748 124.346 54.9598 126.311Z" fill="#ED715D"/>
<path d="M70.9498 125.291C70.8898 126.041 70.9048 126.746 70.8748 127.181C70.7548 129.221 70.5898 130.631 69.8398 132.371C67.9048 132.041 66.5848 130.211 66.8998 128.276C67.2148 126.326 69.0148 125.006 70.9498 125.291Z" fill="#ED715D"/>
<path d="M65.1448 113.441C73.5298 112.586 72.2698 117.836 77.4448 116.876C81.6748 116.081 75.9748 104.606 70.5148 106.121C64.2448 107.876 54.8548 88.4208 42.2998 110.216C40.7398 112.931 43.3648 114.731 45.5848 116.921C46.5748 117.896 46.6648 119.261 46.3648 120.986C46.3348 121.196 46.4398 121.406 46.6348 121.481C47.2498 121.721 48.3298 121.901 49.0348 119.036C50.0248 115.031 50.4448 107.576 54.7048 108.836C58.4248 109.946 59.0248 114.071 65.1448 113.441Z" fill="#002869"/>
<path d="M56.4448 122.006C54.1198 121.976 52.3348 120.431 52.2448 120.341C52.1098 120.221 52.0948 119.996 52.2148 119.861C52.3348 119.726 52.5598 119.711 52.6948 119.831C52.7248 119.846 55.2298 122.021 57.9898 121.061C58.1698 121.001 58.3648 121.091 58.4248 121.271C58.4848 121.451 58.3948 121.646 58.2148 121.706C57.5998 121.931 57.0148 122.006 56.4448 122.006Z" fill="#002869"/>
<path d="M67.6048 123.806C66.0598 123.791 65.0098 123.041 64.9498 122.981C64.7998 122.876 64.7698 122.651 64.8748 122.501C64.9798 122.351 65.2048 122.321 65.3548 122.426C65.4448 122.486 67.4998 123.956 70.0348 122.411C70.1998 122.321 70.4098 122.366 70.4998 122.531C70.6048 122.696 70.5448 122.906 70.3798 122.996C69.3748 123.626 68.4298 123.821 67.6048 123.806Z" fill="#002869"/>
<path d="M61.1848 129.731C60.6148 129.731 59.9248 129.536 59.1298 129.056C58.9648 128.966 58.9198 128.741 59.0098 128.591C59.0998 128.426 59.3248 128.381 59.4748 128.471C60.8698 129.311 61.8898 129.131 62.2648 128.576C62.6098 128.066 62.3098 127.481 61.8298 126.731L61.6498 126.446C60.8248 125.051 60.9448 123.101 60.9448 123.011C60.9598 122.816 61.1248 122.681 61.3048 122.696C61.4998 122.711 61.6348 122.876 61.6198 123.056C61.6198 123.071 61.4998 124.886 62.2198 126.086L62.3848 126.356C62.8348 127.061 63.4348 128.036 62.8048 128.951C62.5348 129.401 61.9798 129.746 61.1848 129.731Z" fill="#ED715D"/>
<path d="M62.1898 134.156C62.0848 134.156 61.9948 134.096 61.9348 134.006C60.3748 131.816 56.9998 133.136 56.9698 133.151C56.7898 133.226 56.5948 133.136 56.5198 132.956C56.4448 132.776 56.5348 132.581 56.7148 132.506C56.8798 132.446 60.6298 130.976 62.4898 133.601C62.5948 133.751 62.5648 133.976 62.4148 134.081C62.3548 134.141 62.2648 134.156 62.1898 134.156Z" fill="#ED715D"/>
<path d="M57.7798 141.671C58.6498 141.686 59.5648 141.641 60.5248 141.551C60.6898 141.536 60.8248 141.386 60.7948 141.206C60.7798 141.041 60.6298 140.906 60.4498 140.936C52.4398 141.746 47.3998 138.416 45.4948 131.036C45.4498 130.871 45.2848 130.766 45.1198 130.811C44.9548 130.856 44.8498 131.021 44.8948 131.186C46.6798 138.026 50.9998 141.536 57.7798 141.671Z" fill="#ED715D"/>
<path d="M52.5298 229.166C52.2898 229.166 52.0498 229.166 51.8098 229.166C51.4198 227.891 50.9098 226.616 50.1898 225.341C48.8548 222.971 46.8449 220.661 43.7549 218.546C40.1249 216.056 38.0699 212.606 37.4699 207.986C36.9599 203.966 37.5899 199.586 38.2049 195.371C39.1199 189.056 39.9898 183.071 36.7348 179.411C36.6148 179.276 36.6148 179.051 36.7648 178.931C36.8998 178.811 37.1249 178.811 37.2449 178.961C40.7098 182.861 39.8099 188.981 38.8799 195.461C37.6499 203.906 36.3899 212.651 44.1448 217.976C47.4898 220.271 49.6048 222.776 50.9848 225.326C51.6598 226.616 52.1548 227.891 52.5298 229.166Z" fill="#016099"/>
<path d="M3.98984 49.4206C4.85984 48.2356 5.87985 47.3806 7.15485 46.6006C9.77985 44.9956 13.3198 44.3506 17.9998 44.3506H22.0049C17.3249 44.3506 13.7848 44.9956 11.1598 46.6006C9.88484 47.3806 8.84984 48.2656 7.99484 49.4506C5.68484 52.6156 4.79985 57.0406 4.79985 64.7806L7.21484 213.896C7.21484 220.406 7.70985 225.011 10.4548 227.951C11.5348 229.121 12.8848 230.021 14.4748 230.576C17.0848 231.491 20.3698 231.836 24.2398 231.836H20.2198C16.3498 231.836 13.0648 231.491 10.4548 230.576C8.86485 230.021 7.51484 229.151 6.43484 227.981C3.68984 225.026 3.19484 220.421 3.19484 213.896L0.779846 64.7656C0.779846 57.0406 1.66484 52.5856 3.98984 49.4206Z" fill="#01609A"/>
<path d="M105.855 202.6L105.795 199.585L105.15 163.465L105.045 157.645L104.835 145.99L103.365 64.3905C103.365 54.1755 101.73 47.8755 94.6198 45.4155C92.3848 44.6355 89.5048 44.3655 86.0398 44.3655H22.0049C17.3249 44.3655 13.7848 45.0105 11.1598 46.6305C9.88484 47.4105 8.84985 48.2655 7.99485 49.4505C5.68485 52.6155 4.79985 57.0555 4.79985 64.7955L6.26985 155.59L6.53985 172.21L7.18484 211.885L7.21485 213.925C7.21485 216.85 7.30485 219.385 7.66485 221.56C8.09985 224.23 8.93985 226.36 10.4549 227.995C11.5499 229.165 12.8848 230.065 14.4748 230.62C15.9448 231.13 17.6248 231.46 19.4998 231.655C20.9698 231.805 22.5448 231.88 24.2398 231.88H89.5648C96.1798 231.88 100.23 230.665 102.645 227.995C102.84 227.785 103.035 227.5 103.2 227.26C105.495 224.185 106.05 219.58 106.05 212.695L105.855 202.6ZM100.665 213.925C100.665 214.15 100.485 214.345 100.26 214.345H12.4198C12.1948 214.345 12.0148 214.135 12.0148 213.91L11.9998 213.37L11.2948 169.345L10.9799 150.145L9.59985 64.7055V64.2405C9.59985 63.2205 10.4398 62.3505 11.4598 62.3505H96.1498C97.1698 62.3505 98.0548 63.2805 98.0548 64.3005V64.3155L99.4198 141.58L99.5548 149.635L99.5998 152.065L100.35 194.875L100.515 203.935L100.545 206.005L100.665 212.65C100.68 213.085 100.68 213.505 100.665 213.925Z" fill="#A9D3E0"/>
<path d="M76.0626 56.4025C77.2739 55.9064 77.8537 54.5223 77.3576 53.3111C76.8615 52.0998 75.4774 51.52 74.2661 52.0161C73.0549 52.5122 72.4751 53.8962 72.9712 55.1075C73.4672 56.3188 74.8513 56.8986 76.0626 56.4025Z" fill="#01609A"/>
<path d="M102.105 166.016C101.925 168.191 102.585 174.731 106.26 175.466C114.12 177.041 116.055 175.271 119.655 174.851L118.905 167.861C118.905 167.861 115.62 166.121 113.955 165.641C111.87 165.011 102.3 163.691 102.105 166.016Z" fill="#FDB88E"/>
<path d="M103.065 163.421C103.56 162.146 105.675 163.496 108.705 164.096C110.025 164.351 113.07 164.456 115.815 165.386C117.555 165.971 118.32 167.381 119.415 168.101L113.955 171.926C113.385 168.296 102.075 165.956 103.065 163.421Z" fill="#FDB88E"/>
<path d="M160.41 147.596C153.765 158.666 131.865 160.886 117.075 165.551C115.2 166.556 113.97 175.961 116.415 177.356C127.05 179.081 129.435 188.411 148.17 186.356C166.425 184.361 173.415 195.101 188.925 175.106C190.02 173.696 239.085 132.401 239.67 130.106L196.38 118.151C177.855 120.881 170.16 131.351 160.41 147.596Z" fill="#ED715D"/>
<path d="M177.555 184.841C177.345 184.841 177.18 184.661 177.18 184.466C177.375 172.886 180.21 161.411 180.24 161.291C180.285 161.096 180.495 160.961 180.69 161.021C180.885 161.066 181.02 161.276 180.96 161.471C180.93 161.591 178.125 172.991 177.915 184.466C177.93 184.676 177.765 184.841 177.555 184.841Z" fill="#002869"/>
<path d="M211.095 102.581L215.715 116.921C216.615 121.181 195.15 125.876 194.01 121.286L193.23 114.581L211.095 102.581Z" fill="#FDB88E"/>
<path d="M210.285 100.691C209.145 114.311 198.78 117.011 191.31 115.256C186.12 114.026 184.185 107.246 183.525 103.961C183.525 103.946 183.525 103.931 183.51 103.916C183.165 102.446 183.09 100.901 183.225 99.4308C183.285 98.7858 183.42 98.1708 183.57 97.5408C183.675 97.0758 183.81 96.5958 183.915 96.1158C184.095 95.3208 184.2 94.4808 184.335 93.5058C184.755 90.4758 185.535 89.2608 186.33 88.3158C190.08 83.8158 194.265 87.6408 199.695 80.2458C203.19 75.4908 211.035 91.7958 210.285 100.691Z" fill="#FDB88E"/>
<path d="M199.11 102.221C198.315 104.516 200.22 106.901 202.83 106.421C203.625 106.271 204.33 105.806 204.75 105.116C206.205 102.851 204.63 100.136 202.155 100.091C200.775 100.076 199.56 100.931 199.11 102.221Z" fill="#ED715D"/>
<path d="M186.48 101.351C186.195 102.821 184.95 103.856 183.51 103.931C183.165 102.461 183.09 100.916 183.225 99.4457C183.285 98.8007 183.42 98.1857 183.57 97.5557C183.69 97.5707 183.825 97.5857 183.96 97.6007C185.685 97.9307 186.81 99.6107 186.48 101.351Z" fill="#ED715D"/>
<path d="M194.28 116.306C194.1 116.291 193.98 116.156 193.98 115.976C193.995 115.796 194.13 115.676 194.31 115.676C194.4 115.676 202.995 116.036 207.285 111.056C207.405 110.921 207.6 110.906 207.735 111.026C207.87 111.146 207.885 111.341 207.765 111.476C203.265 116.666 194.64 116.321 194.28 116.306Z" fill="#ED715D"/>
<path d="M188.4 96.5206C185.835 96.3256 184.935 94.7806 184.89 94.7056C184.8 94.5406 184.86 94.3156 185.025 94.2256C185.19 94.1356 185.415 94.1956 185.505 94.3606C185.55 94.4506 186.66 96.2656 190.125 95.7406C190.32 95.7106 190.5 95.8456 190.53 96.0406C190.56 96.2356 190.425 96.4156 190.23 96.4456C189.54 96.5506 188.94 96.5656 188.4 96.5206Z" fill="#002869"/>
<path d="M199.095 98.4106C197.52 98.2006 196.485 97.3906 196.425 97.3456C196.275 97.2256 196.245 97.0006 196.365 96.8506C196.485 96.7006 196.71 96.6706 196.86 96.7906C196.965 96.8656 199.305 98.6956 202.365 97.0756C202.545 96.9856 202.755 97.0456 202.845 97.2256C202.935 97.4056 202.875 97.6156 202.695 97.7056C201.345 98.4256 200.1 98.5456 199.095 98.4106Z" fill="#002869"/>
<path d="M191.895 104.411C191.49 104.381 191.07 104.261 190.71 104.051C190.11 103.691 189.765 103.121 189.75 102.491C189.735 101.681 190.335 101.111 190.905 100.571C191.19 100.301 191.49 100.016 191.7 99.7158C192.42 98.6808 192.78 96.7758 192.795 96.7608C192.825 96.5658 193.02 96.4458 193.215 96.4758C193.41 96.5058 193.53 96.7008 193.5 96.8958C193.485 96.9858 193.11 98.9658 192.3 100.121C192.045 100.481 191.73 100.781 191.415 101.081C190.905 101.561 190.47 101.966 190.485 102.461C190.5 102.986 190.875 103.286 191.1 103.421C191.64 103.736 192.375 103.781 192.885 103.526C193.065 103.436 193.275 103.511 193.365 103.676C193.455 103.856 193.38 104.066 193.215 104.156C192.81 104.366 192.345 104.441 191.895 104.411Z" fill="#ED715D"/>
<path d="M192.84 108.041C194.46 107.966 195.66 107.351 195.735 107.306C195.93 107.201 196.005 106.961 195.9 106.781C195.795 106.586 195.555 106.511 195.375 106.616C195.345 106.631 192.39 108.161 189.615 106.436C189.435 106.316 189.195 106.376 189.075 106.571C188.955 106.751 189.015 106.991 189.21 107.111C190.47 107.891 191.76 108.086 192.84 108.041Z" fill="#ED715D"/>
<path d="M194.46 74.0657C194.46 74.0657 215.88 55.1207 231.12 80.3057C235.98 88.3457 248.7 87.1907 244.86 104.501C243.555 110.366 244.635 112.586 246.525 117.341C249.9 125.801 246.15 132.911 236.835 133.616C229.53 134.186 231.165 143.321 221.79 141.761C214.155 140.501 214.2 131.771 207.855 129.806C193.86 125.456 206.46 110.426 208.47 103.511C208.62 103.016 208.785 102.506 208.95 101.981C209.445 100.256 209.295 98.7557 208.95 97.0757C207.045 87.8507 193.17 90.2057 196.17 79.1657L194.46 74.0657Z" fill="#012869"/>
<path d="M103.875 192.911C101.775 193.646 99.4349 193.586 97.4099 192.686C95.6399 191.891 92.5948 189.731 92.1748 184.211C92.1448 183.776 92.4749 183.386 92.9099 183.356C93.3449 183.326 93.7349 183.656 93.7649 184.091C94.0349 187.571 95.5499 190.106 98.0699 191.231C100.395 192.281 103.26 191.921 105.36 190.331C106.62 189.386 108.615 187.166 107.985 183.056C102.525 147.311 92.2649 74.5907 92.1299 73.6457C92.0699 73.2107 92.3699 72.8057 92.8049 72.7457C93.2399 72.6857 93.6449 72.9857 93.7049 73.4207C93.8399 74.3657 104.085 147.056 109.545 182.801C110.1 186.401 108.915 189.596 106.305 191.576C105.57 192.176 104.73 192.611 103.875 192.911Z" fill="#ED715D"/>
<path d="M89.3399 69.9407C90.7499 65.5757 95.1298 62.7257 99.8848 63.1307C101.64 63.2807 103.395 62.6507 104.565 61.4357C106.8 59.0957 110.175 57.8207 113.67 58.4057C117.48 59.0357 120.15 61.6157 121.17 64.8707C121.335 65.4107 121.8 65.8307 122.4 65.9807C128.61 67.5257 132.075 73.4957 130.395 79.3157C128.7 85.1807 122.16 88.3907 116.22 86.9357C114.57 86.5307 112.77 86.9957 111.555 88.1207C108.945 90.5207 105.255 91.7657 101.475 91.1057C99.1498 90.7007 97.0348 89.6057 95.4598 88.0157C95.1448 87.7007 94.1998 86.7407 92.6998 86.9657C91.3798 87.1607 90.0599 87.4157 88.7549 87.2057C84.4498 86.5007 81.6749 82.9007 81.7649 78.9857C81.8549 75.2807 84.4199 72.0857 88.2149 71.0207C88.7399 70.8407 89.1749 70.4357 89.3399 69.9407Z" fill="white"/>
<path d="M14.0249 115.091C14.0399 115.181 14.0548 115.256 14.0848 115.331C15.7048 94.5856 52.0198 79.6006 89.8498 74.1856C109.095 71.8156 128.61 71.9356 144.075 75.1756C145.695 75.5206 147.255 75.8806 148.785 76.3006C161.415 79.6906 170.67 85.4656 173.745 94.0906C173.745 94.0156 173.745 93.9406 173.745 93.8506C173.655 91.5256 171.345 86.0056 169.575 83.2306C159.27 66.9706 145.05 56.4856 129.18 50.9506C115.755 46.2706 101.145 45.1306 86.7298 47.0506C86.5648 47.0656 86.4148 47.0956 86.2498 47.1106C86.0848 47.1256 85.9348 47.1556 85.7698 47.1706C82.3348 47.6356 78.9298 48.2506 75.5848 49.0606C48.2698 55.5556 24.6149 73.5106 15.2699 103.736C14.2949 106.886 13.4999 112.811 14.0249 115.091Z" fill="#ED715D"/>
<path d="M106.155 122.846C104.4 123.116 102.645 123.386 100.86 123.626C100.8 123.881 100.8 124.136 100.875 124.376C102.66 124.136 104.415 123.866 106.17 123.596C106.275 123.341 106.29 123.086 106.155 122.846ZM104.295 54.9256C104.235 54.6706 104.175 54.4156 104.115 54.1756C98.8949 54.0706 93.6299 54.3106 88.3949 54.8956C88.3499 54.8806 88.2899 54.8806 88.2449 54.8806C88.0349 54.9106 87.8249 54.9406 87.6149 54.9706L86.9848 55.0606C86.7749 55.0906 86.5649 55.1056 86.3549 55.1356C86.2949 55.1356 86.2499 55.1656 86.2049 55.1806C76.7249 56.6506 67.5749 59.0956 59.2049 62.3506H61.3199C69.1799 59.4556 77.6699 57.2656 86.4599 55.9006C86.5049 55.9006 86.5499 55.8856 86.5799 55.8556C86.7449 55.8406 86.8948 55.8256 87.0599 55.7956L87.7199 55.7056C87.8849 55.6756 88.0348 55.6606 88.1998 55.6306C88.2448 55.6456 88.2899 55.6456 88.3349 55.6456C93.6598 55.0606 99.0149 54.8206 104.295 54.9256Z" fill="#ED715D"/>
<path d="M110.58 168.161C110.25 166.346 102.705 163.751 102.585 166.301L105.165 174.596C105.165 174.596 108.315 176.306 109.17 174.761C110.055 173.156 111.135 171.176 110.58 168.161Z" fill="#FDB88E"/>
<path d="M109.53 175.09C109.485 175.09 109.455 175.09 109.41 175.075C109.215 175.015 109.11 174.79 109.17 174.595C110.58 170.35 110.16 168.295 109.545 167.32C109.005 166.45 108.24 166.345 108.24 166.345C108.03 166.315 107.895 166.135 107.91 165.925C107.94 165.715 108.12 165.58 108.33 165.595C108.375 165.595 109.44 165.745 110.175 166.915C111.195 168.535 111.09 171.19 109.89 174.835C109.83 175 109.695 175.09 109.53 175.09Z" fill="#ED715D"/>
<path d="M108.135 14.9957C102.015 11.9357 100.8 5.20067 95.2799 3.56567C88.4699 1.54067 85.2299 4.40567 75.8248 1.12067C64.3798 -2.88433 57.2099 4.63068 53.7449 11.2757C50.7449 17.0057 43.1248 17.8757 42.2098 23.6207C41.4298 28.5257 45.8849 32.6957 53.5499 33.2807C61.2299 33.8657 64.3799 30.7007 73.3949 35.5757C75.4949 36.7157 78.0149 37.9607 80.6999 38.2457C84.8549 38.6957 88.6199 37.4057 91.4999 35.4857C94.3949 33.5507 100.275 32.7707 105.39 32.7407C114.63 32.7107 120.21 21.0407 108.135 14.9957Z" fill="#01609A"/>
<path d="M101.775 44.8458C101.475 47.3208 100.035 48.1908 98.3998 47.9958C98.3098 47.9808 98.2348 47.9658 98.1598 47.9508C96.6598 47.6658 95.5949 46.4808 95.8799 44.1258C96.1199 42.0858 98.4448 39.6408 99.2548 38.8308C99.4348 38.6508 99.5398 38.5608 99.5398 38.5608C99.5398 38.5608 102.06 42.3708 101.775 44.8458Z" fill="#01609A"/>
<path d="M81.7649 51.7606C81.4649 54.2356 80.0249 55.1056 78.3899 54.9106C78.2999 54.8956 78.2248 54.8806 78.1498 54.8656C76.6498 54.5806 75.5848 53.3956 75.8698 51.0406C76.1098 49.0006 78.4348 46.5556 79.2449 45.7456C79.4249 45.5656 79.5299 45.4756 79.5299 45.4756C79.5299 45.4756 82.0649 49.2706 81.7649 51.7606Z" fill="#01609A"/>
<path d="M62.4598 44.8458C62.1598 47.3208 60.7199 48.1908 59.0999 47.9958C59.0099 47.9808 58.9349 47.9658 58.8599 47.9508C57.3599 47.6658 56.2949 46.4808 56.5799 44.1258C56.8199 42.0858 59.1449 39.6408 59.9549 38.8308C60.1349 38.6508 60.2398 38.5608 60.2398 38.5608C60.2398 38.5608 62.7598 42.3708 62.4598 44.8458Z" fill="#01609A"/>
</svg>
