<svg width="1700" height="150" viewBox="0 0 1700 150" fill="none" xmlns="http://www.w3.org/2000/svg">
<path opacity="0.2" fill-rule="evenodd" clip-rule="evenodd" d="M1020.44 0H1102.13C1076.85 14.7271 1008.22 52.8017 936.424 91.013C897.772 111.584 857.587 132.529 822.45 150H726.608C760.95 137.261 840.333 96.8411 917.632 55.7024C954.768 35.9381 990.868 16.3097 1020.44 0ZM585.97 0H692.675C695.4 5.63553 696.924 11.6106 697.668 17.3681C699.952 35.0477 695.532 55.3151 688.268 73.3544C680.883 91.6954 669.61 110.111 655.676 124.112C646.304 133.53 645.746 139.295 645.891 141.105C646.014 142.652 647.024 145.976 653.214 149.8C653.323 149.867 653.433 149.933 653.543 150H606.83C606.449 148.152 606.174 146.249 606.018 144.291C604.606 126.613 613.256 110.032 627.324 95.8964C636.83 86.3437 645.402 72.7218 651.163 58.4139C657.046 43.8043 659.072 30.8118 657.998 22.4936C657.483 18.5098 656.43 16.8747 656.064 16.4345C656.06 16.4298 656.055 16.4234 656.049 16.4154C655.963 16.2967 655.625 15.8285 653.798 15.5763C648.144 14.7957 633.87 17.1516 607.137 33.941C598.426 39.412 549.47 67.4872 503.486 93.7547C480.319 106.988 457.669 119.897 440.813 129.496C432.384 134.296 425.403 138.27 420.529 141.043C419.247 141.772 418.112 142.418 417.134 142.974L414.88 144.256L413.395 145.101L413.014 145.317L412.918 145.372L412.894 145.386L412.887 145.389C412.886 145.39 412.885 145.39 403 128.004C412.109 145.809 412.105 145.812 412.099 145.814L412.083 145.823L412.03 145.85L411.846 145.943C411.769 145.983 411.675 146.03 411.566 146.086C411.452 146.143 411.32 146.21 411.171 146.285C410.589 146.578 409.744 147.002 408.662 147.538C407.331 148.198 405.64 149.029 403.636 150H287.678C305.614 147.449 330.848 138.382 353.408 128.861C364.84 124.036 375.011 119.346 382.323 115.862C385.974 114.123 388.899 112.69 390.896 111.7C391.894 111.205 392.66 110.821 393.168 110.565C393.305 110.496 393.423 110.436 393.522 110.386L393.622 110.33L395.104 109.487C396.404 108.747 398.312 107.662 400.748 106.276C405.618 103.505 412.594 99.5347 421.018 94.7376C437.866 85.1432 460.499 72.2438 483.645 59.0219C530.288 32.3788 578.082 4.95394 585.863 0.067337C585.899 0.0448776 585.935 0.022432 585.97 0ZM3.05176e-05 101.599C4.1805 100.034 8.95165 98.134 14.2869 95.9122C32.0611 88.5104 54.911 78.0368 80.7809 65.849C98.0679 57.7047 116.692 48.7992 135.905 39.6118L135.91 39.6098C163.291 26.5167 191.87 12.851 219.483 0H317.905C302.324 6.4393 285.218 13.9351 267.186 22.0989C230.806 38.5699 191.38 57.4235 153.747 75.4195L153.744 75.4209C134.414 84.6647 115.557 93.6823 97.8286 102.034C71.8938 114.253 48.3414 125.06 29.6644 132.838C20.3439 136.72 11.9396 139.972 4.89664 142.286C4.71776 142.345 4.53784 142.404 4.35694 142.463C1.63 139.045 3.05176e-05 134.713 3.05176e-05 130V101.599ZM238.35 150H279.079C281.654 141.935 288.732 128.633 303.698 108.475C318.482 88.5614 340.053 63.148 370.221 31.0764C382.108 19.6459 391.571 9.75984 398.706 1.30236C399.073 0.867596 399.436 0.433463 399.796 0H344.818C343.946 0.846257 343.056 1.70553 342.148 2.57794L341.783 2.92841L341.436 3.2969C310.5 36.1667 287.685 62.94 271.581 84.6306C255.732 105.979 245.407 123.678 240.843 138.248C239.675 141.977 238.778 145.953 238.35 150ZM403 128.004L412.885 145.39L412.502 145.609L412.109 145.809L403 128.004ZM1074.09 150C1074.68 145.997 1075.7 142.122 1076.92 138.57C1081.83 124.283 1092.33 106.775 1108.36 85.4829C1124.62 63.8729 1147.51 37.1512 1178.44 4.29674L1178.78 3.92825L1179.15 3.57778C1180.41 2.37032 1181.64 1.17778 1182.86 0H1239.1C1230.1 9.5986 1219.52 20.2597 1207.22 32.0774C1177.04 64.1638 1155.32 89.5972 1140.32 109.536C1125.95 128.624 1118.52 141.663 1115.32 150H1074.09ZM1699.28 135.341C1687.63 140.418 1676.14 145.328 1665.02 150H1556.63C1584.86 139.787 1641.68 117.226 1700 91.3267V130C1700 131.85 1699.75 133.641 1699.28 135.341ZM1415.97 0H1522.67C1525.4 5.63548 1526.92 11.6105 1527.67 17.368C1529.95 35.0475 1525.53 55.3149 1518.27 73.3542C1510.88 91.6952 1499.61 110.111 1485.68 124.112C1476.3 133.53 1475.75 139.295 1475.89 141.105C1476.01 142.652 1477.02 145.976 1483.21 149.799C1483.32 149.867 1483.43 149.933 1483.54 150H1436.83C1436.45 148.152 1436.17 146.249 1436.02 144.291C1434.61 126.613 1443.26 110.032 1457.32 95.8962C1466.83 86.3436 1475.4 72.7217 1481.16 58.4138C1487.05 43.8042 1489.07 30.8116 1488 22.4934C1487.48 18.5097 1486.43 16.8746 1486.06 16.4343C1486.06 16.4296 1486.05 16.4232 1486.05 16.4152C1485.96 16.2966 1485.62 15.8284 1483.8 15.5762C1478.14 14.7955 1463.87 17.1514 1437.14 33.9408C1428.43 39.4119 1379.47 67.4871 1333.49 93.7546C1310.32 106.988 1287.67 119.897 1270.81 129.496C1262.38 134.296 1255.4 138.269 1250.53 141.043C1248.09 142.429 1246.18 143.516 1244.88 144.256L1243.39 145.101L1243.01 145.317L1242.92 145.372L1242.89 145.386L1242.89 145.389C1242.89 145.39 1242.89 145.39 1233 128.004C1242.33 145.693 1242.33 145.695 1242.32 145.698L1242.31 145.706L1242.26 145.733L1242.08 145.827C1241.92 145.908 1241.7 146.023 1241.42 146.171C1240.85 146.467 1240.03 146.893 1238.97 147.433C1237.63 148.118 1235.93 148.985 1233.9 150H1123.84C1140.69 146.836 1163.54 138.201 1184.25 129.125C1195.36 124.256 1205.26 119.53 1212.39 116.019C1215.95 114.267 1218.8 112.824 1220.74 111.827C1221.72 111.329 1222.46 110.942 1222.96 110.684C1223.14 110.588 1223.29 110.51 1223.41 110.451L1223.62 110.33L1225.1 109.486L1227.76 107.978L1230.75 106.276C1235.62 103.505 1242.59 99.5345 1251.02 94.7375C1267.87 85.143 1290.5 72.2436 1313.65 59.0218C1360.29 32.3786 1408.08 4.95378 1415.86 0.0671768C1415.9 0.0447709 1415.93 0.0223786 1415.97 0ZM1233 128.004L1242.89 145.39L1242.61 145.546L1242.33 145.693L1233 128.004Z" fill="#F1AD9C"/>
</svg>
