<svg width="39" height="46" viewBox="0 0 39 46" fill="none" xmlns="http://www.w3.org/2000/svg">
<path d="M32.5175 26.1316C28.4624 24.8509 25.6157 24.4935 25.6157 24.4935L22.3433 31.5421L21.7743 25.1349H17.7192L16.7947 31.7561L13.3805 24.4235C13.3805 24.4235 9.60906 25.0648 6.47868 26.0617C4.98519 26.5593 1 28.3394 1 33.5378V45H37.9962V33.68C38.068 31.6861 37.1418 27.6284 32.5176 26.1321L32.5175 26.1316ZM18.9291 26.631H20.4944L21.1352 34.1771L19.4281 37.8074L17.791 34.1771L18.9291 26.631ZM36.5726 43.7173H31.5933V38.0214H30.1698V43.7173H8.82654V38.0214H7.40306V43.7173H2.4237V33.6797C2.4237 29.4799 5.76788 27.9138 6.90598 27.5563C9.25393 26.845 11.1746 26.3456 12.5263 26.1319L19.4985 41.2258L26.4707 26.1319C27.8223 26.3456 29.7431 26.8432 32.091 27.5563C33.2291 27.912 36.5733 29.4784 36.5733 33.6797L36.5726 43.7173Z" fill="#B66357"/>
<path d="M19.4979 23.0709C24.7627 23.0709 28.7479 15.3108 28.7479 10.2563C28.7479 5.12963 24.6211 1 19.4979 1C14.3746 1 10.2478 5.12963 10.2478 10.2563C10.2478 15.3113 14.2328 23.0709 19.4979 23.0709ZM19.4979 2.42453C22.9121 2.42453 25.7591 4.63216 26.8972 7.62122C23.1976 8.26248 21.774 4.84418 21.774 4.84418C21.774 4.84418 18.288 9.40126 11.9551 8.26073C12.8095 4.91604 15.8701 2.42453 19.4979 2.42453ZM11.6714 9.6867C12.3822 9.82862 13.1648 9.90045 13.8775 9.90045C16.6526 9.90045 19.3562 8.9035 21.4902 7.05331C22.8419 8.69148 25.048 9.47466 27.1822 8.97536C27.254 9.40286 27.324 9.83035 27.324 10.186C27.324 14.5995 23.7662 21.5778 19.4975 21.5778C15.2289 21.5778 11.671 14.6009 11.671 10.186L11.6714 9.6867Z" fill="#B66357"/>
<path d="M32.5175 26.1316C28.4624 24.8509 25.6157 24.4935 25.6157 24.4935L22.3433 31.5421L21.7743 25.1349H17.7192L16.7947 31.7561L13.3805 24.4235C13.3805 24.4235 9.60906 25.0648 6.47868 26.0617C4.98519 26.5593 1 28.3394 1 33.5378V45H37.9962V33.68C38.068 31.6861 37.1418 27.6284 32.5176 26.1321L32.5175 26.1316ZM18.9291 26.631H20.4944L21.1352 34.1771L19.4281 37.8074L17.791 34.1771L18.9291 26.631ZM36.5726 43.7173H31.5933V38.0214H30.1698V43.7173H8.82654V38.0214H7.40306V43.7173H2.4237V33.6797C2.4237 29.4799 5.76788 27.9138 6.90598 27.5563C9.25393 26.845 11.1746 26.3456 12.5263 26.1319L19.4985 41.2258L26.4707 26.1319C27.8223 26.3456 29.7431 26.8432 32.091 27.5563C33.2291 27.912 36.5733 29.4784 36.5733 33.6797L36.5726 43.7173Z" stroke="#B66357" stroke-width="0.2"/>
<path d="M19.4979 23.0709C24.7627 23.0709 28.7479 15.3108 28.7479 10.2563C28.7479 5.12963 24.6211 1 19.4979 1C14.3746 1 10.2478 5.12963 10.2478 10.2563C10.2478 15.3113 14.2328 23.0709 19.4979 23.0709ZM19.4979 2.42453C22.9121 2.42453 25.7591 4.63216 26.8972 7.62122C23.1976 8.26248 21.774 4.84418 21.774 4.84418C21.774 4.84418 18.288 9.40126 11.9551 8.26073C12.8095 4.91604 15.8701 2.42453 19.4979 2.42453ZM11.6714 9.6867C12.3822 9.82862 13.1648 9.90045 13.8775 9.90045C16.6526 9.90045 19.3562 8.9035 21.4902 7.05331C22.8419 8.69148 25.048 9.47466 27.1822 8.97536C27.254 9.40286 27.324 9.83035 27.324 10.186C27.324 14.5995 23.7662 21.5778 19.4975 21.5778C15.2289 21.5778 11.671 14.6009 11.671 10.186L11.6714 9.6867Z" stroke="#B66357" stroke-width="0.2"/>
</svg>
